<?xml version="1.0" encoding="UTF-8" standalone="no"?>
<!-- Uploaded to: SVG Repo, www.svgrepo.com, Generator: SVG Repo Mixer Tools -->

<svg
   width="533.31793"
   height="533.31793"
   viewBox="0 0 15.999538 15.999538"
   fill="none"
   version="1.1"
   id="svg4"
   sodipodi:docname="facebook.svg"
   inkscape:version="1.1.2 (b8e25be833, 2022-02-05)"
   xmlns:inkscape="http://www.inkscape.org/namespaces/inkscape"
   xmlns:sodipodi="http://sodipodi.sourceforge.net/DTD/sodipodi-0.dtd"
   xmlns="http://www.w3.org/2000/svg"
   xmlns:svg="http://www.w3.org/2000/svg">
  <defs
     id="defs8" />
  <sodipodi:namedview
     id="namedview6"
     pagecolor="#ffffff"
     bordercolor="#999999"
     borderopacity="1"
     inkscape:pageshadow="0"
     inkscape:pageopacity="0"
     inkscape:pagecheckerboard="0"
     showgrid="false"
     inkscape:zoom="0.89875"
     inkscape:cx="266.48122"
     inkscape:cy="260.36161"
     inkscape:window-width="1920"
     inkscape:window-height="1009"
     inkscape:window-x="-8"
     inkscape:window-y="-8"
     inkscape:window-maximized="1"
     inkscape:current-layer="svg4" />
  <path
     d="m 15.999393,7.9505803 c -0.0187,-1.5245 -0.4727,-3.01191 -1.3085,-4.28705 -0.8358,-1.27514 -2.0185,-2.28491 -3.4089,-2.91038003 -1.3905006,-0.62547 -2.9307006,-0.84059 -4.4393006,-0.62004 -1.50857,0.22056 -2.92273,0.86760003 -4.0759,1.86495003 -1.15318,0.99734 -1.99734997,2.30344 -2.43309997,3.76447 -0.43574,1.46105 -0.44492,3.01615 -0.02644,4.4822497 0.41848,1.4661 1.24717997,2.782 2.38850997,3.7929 1.14132,1.0109 2.54775,1.6746 4.05363,1.9129 v -5.67 h -1.99999 V 7.9505803 h 1.99999 v -1.77 c -0.0463,-0.41154 -0.0017,-0.82825 0.1307,-1.22069 0.1324,-0.39244 0.3493,-0.75104 0.6354,-1.05049 0.2861,-0.29946 0.6344,-0.53247 1.0204,-0.68258 0.386,-0.15012 0.8003,-0.21369 1.2135,-0.18621 0.5998006,0.00821 1.1982006,0.0617 1.7900006,0.16 v 2 h -1 c -0.1724,-0.02175 -0.3476,-0.00447 -0.5124,0.05056 -0.1649006,0.05503 -0.3153006,0.1464 -0.4401006,0.26736 -0.1248,0.12096 -0.2208,0.26842 -0.2809,0.43145 -0.0602,0.1631 -0.0829,0.3376 -0.0666,0.5106 v 1.51 h 2.2200006 l -0.36,2.3299997 H 9.2493924 v 5.6 c 1.8899006,-0.2989 3.6101006,-1.2653 4.8485006,-2.7239 1.2384,-1.4586 1.913,-3.3126997 1.9015,-5.2260997 z"
     fill="#FFFFFF"
     id="path2" />
</svg>
