<?xml version="1.0" encoding="UTF-8" standalone="no"?>
<!-- Uploaded to: SVG Repo, www.svgrepo.com, Generator: SVG Repo Mixer Tools -->

<svg
   width="533.35455"
   height="533.35455"
   viewBox="0 0 16.000636 16.000637"
   fill="none"
   version="1.1"
   id="svg4"
   sodipodi:docname="google.svg"
   inkscape:version="1.1.2 (b8e25be833, 2022-02-05)"
   xmlns:inkscape="http://www.inkscape.org/namespaces/inkscape"
   xmlns:sodipodi="http://sodipodi.sourceforge.net/DTD/sodipodi-0.dtd"
   xmlns="http://www.w3.org/2000/svg"
   xmlns:svg="http://www.w3.org/2000/svg">
  <defs
     id="defs8" />
  <sodipodi:namedview
     id="namedview6"
     pagecolor="#ffffff"
     bordercolor="#999999"
     borderopacity="1"
     inkscape:pageshadow="0"
     inkscape:pageopacity="0"
     inkscape:pagecheckerboard="0"
     showgrid="false"
     inkscape:zoom="0.89875"
     inkscape:cx="257.57997"
     inkscape:cy="265.9249"
     inkscape:window-width="1920"
     inkscape:window-height="1009"
     inkscape:window-x="-8"
     inkscape:window-y="-8"
     inkscape:window-maximized="1"
     inkscape:current-layer="svg4" />
  <path
     d="m 15.76841,6.7701238 -0.09,-0.35 H 8.2384105 v 3.16 H 12.68841 c -0.2483,0.9643002 -0.8128,1.8174002 -1.6033,2.4229002 -0.7904,0.6055 -1.7610995,0.9284 -2.7566995,0.9171 -1.2992,-0.0107 -2.54746,-0.5065 -3.50001,-1.39 -0.46825,-0.4615 -0.84087,-1.0109 -1.09655,-1.6166002 -0.25567,-0.6057 -0.38937,-1.2559 -0.39344,-1.9134 0.01511,-1.3205 0.53792,-2.58456 1.46,-3.52998 0.9391,-0.88964 2.1864,-1.3807 3.48,-1.37 1.1079,0.00853 2.1745995,0.42099 2.9999995,1.16 l 2.2,-2.26 c -1.45,-1.29363995 -3.3268,-2.00591995 -5.2699995,-1.99999995075 -1.069,-0.006349999 -2.1287,0.19791000075 -3.11873,0.60113000075 -0.99002,0.40320995 -1.89093,0.99747995 -2.65127,1.74886995 -1.44630998,1.50228 -2.26172998,3.5018 -2.27847998,5.58708 -0.01674,2.0853002 0.76648,4.0976002 2.18847998,5.6229002 0.78784,0.7849 1.72422,1.405 2.75441,1.8239 1.03019,0.419 2.13349,0.6284 3.24559,0.6161 1.0084,0.0075 2.0078995,-0.1898 2.9378995,-0.58 0.9299,-0.3902 1.7709,-0.9651 2.4721,-1.69 1.3759,-1.5129 2.1202,-3.4953 2.08,-5.5400002 0.0108,-0.4744 -0.0126,-0.9489 -0.07,-1.42 z"
     fill="#FFFFFF"
     id="path2" />
</svg>
