<?xml version="1.0" encoding="UTF-8" standalone="no"?>
<!-- Uploaded to: SVG Repo, www.svgrepo.com, Generator: SVG Repo Mixer Tools -->

<svg
   width="533.33386"
   height="533.33386"
   viewBox="0 0 16.000015 16.000016"
   fill="none"
   version="1.1"
   id="svg4"
   sodipodi:docname="reddit.svg"
   inkscape:version="1.1.2 (b8e25be833, 2022-02-05)"
   xmlns:inkscape="http://www.inkscape.org/namespaces/inkscape"
   xmlns:sodipodi="http://sodipodi.sourceforge.net/DTD/sodipodi-0.dtd"
   xmlns="http://www.w3.org/2000/svg"
   xmlns:svg="http://www.w3.org/2000/svg">
  <defs
     id="defs8" />
  <sodipodi:namedview
     id="namedview6"
     pagecolor="#ffffff"
     bordercolor="#999999"
     borderopacity="1"
     inkscape:pageshadow="0"
     inkscape:pageopacity="0"
     inkscape:pagecheckerboard="0"
     showgrid="false"
     inkscape:zoom="0.89875"
     inkscape:cx="266.48122"
     inkscape:cy="265.9249"
     inkscape:window-width="1920"
     inkscape:window-height="1009"
     inkscape:window-x="-8"
     inkscape:window-y="-8"
     inkscape:window-maximized="1"
     inkscape:current-layer="svg4" />
  <path
     d="m 6.2400075,9.6000001 c -0.1582,0 -0.31289,-0.0469 -0.44445,-0.1348 -0.13156,-0.0879 -0.2341,-0.2129 -0.29465,-0.3591 -0.06055,-0.1461 -0.07639,-0.307 -0.04552,-0.4622 0.03086,-0.1552 0.10706,-0.2977 0.21894,-0.4096 0.11188,-0.1119 0.25443,-0.1881 0.40958,-0.2189 0.1552,-0.0309 0.3161,-0.0151 0.4622,0.0455 0.1462,0.0605 0.2712,0.1631 0.3591,0.2946 0.0879,0.1316 0.1348,0.2863 0.1348,0.4445 0,0.1051 -0.0207,0.2091 -0.0609,0.3061 -0.0402,0.0971 -0.0991,0.1853 -0.1734,0.2596 -0.0743,0.0743 -0.1625,0.1332 -0.2596,0.1734 -0.097,0.0402 -0.201,0.0609 -0.3061,0.0609 z m 9.7599995,-1.6 c 0,1.5823 -0.4692,3.1289999 -1.3482,4.4445999 -0.8791,1.3156 -2.1285,2.3409 -3.5903,2.9464 -1.4617995,0.6055 -3.0703995,0.764 -4.6221995,0.4553 -1.55187,-0.3087 -2.97733,-1.0706 -4.09615,-2.1894 -1.11882,-1.1189 -1.88074995,-2.5443 -2.18942995,-4.0961999 -0.30868,-1.5518 -0.15025,-3.1604 0.45525,-4.62217 C 1.2144775,3.4767201 2.2398575,2.2272901 3.5554475,1.3482401 4.8710375,0.46919012 6.4178075,1.2049688e-7 8.0000075,1.2049688e-7 10.121707,1.2049688e-7 12.156607,0.84285012 13.656907,2.3431501 c 1.5002,1.50029 2.3431,3.53512 2.3431,5.65685 z m -4.27,-1.33 c -0.2757,0.0162 -0.5357,0.1338 -0.73,0.33 -0.8225,-0.5436 -1.7841995,-0.8387 -2.7699995,-0.85 l 0.56,-2.53 1.7899995,0.4 c -0.0013,0.10458 0.0181,0.20839 0.0572,0.30539 0.0392,0.09701 0.0971,0.18528 0.1706,0.2597 0.0735,0.07442 0.1611,0.13351 0.2576,0.17383 0.0965,0.04033 0.2,0.06109 0.3046,0.06108 0.2131,-0.00263 0.4166,-0.08913 0.5663,-0.24075 0.1498,-0.15162 0.2337,-0.35615 0.2337,-0.56925 0.006,-0.18285 -0.0517,-0.3621 -0.1631,-0.50716 -0.1115,-0.14507 -0.2699,-0.24695 -0.4481,-0.28826 -0.1782,-0.04131 -0.3652,-0.01948 -0.5292,0.06175 -0.1639,0.08123 -0.2945,0.21684 -0.3696,0.38367 l -1.9999995,-0.44 c -0.0476,-0.00913 -0.0969,2.7e-4 -0.1378,0.0263 -0.0409,0.02603 -0.0703,0.0667 -0.0822,0.1137 l -0.62,2.79 c -0.9854,0.0141 -1.94632,0.3089 -2.77,0.85 -0.10825,-0.1118 -0.23957,-0.1986 -0.38482,-0.2544 -0.14525,-0.0558 -0.30092,-0.0793 -0.45616,-0.0687 -0.15524,0.0105 -0.30632,0.0547 -0.44271,0.1296 -0.13638,0.0749 -0.25479,0.1787 -0.34697,0.304 -0.09217,0.1254 -0.1559,0.2694 -0.18673,0.4219 -0.03083,0.1525 -0.02803,0.3099 0.00821,0.4612 0.03624,0.1513 0.10504,0.2929 0.20162,0.4149 0.09658,0.122 0.2186,0.2215 0.35756,0.2915 -0.01529,0.1663 -0.01529,0.3337 0,0.5 0,1.6899999 1.91,3.0699999 4.26,3.0699999 2.3499995,0 4.2599995,-1.38 4.2599995,-3.0699999 4e-4,-0.1718 -0.0198,-0.343 -0.06,-0.51 0.2021,-0.1145 0.3615,-0.2916 0.454,-0.5046 0.0926,-0.213 0.1134,-0.4503 0.0592,-0.6762 -0.0542,-0.2258 -0.1805,-0.4279 -0.3596,-0.5757 -0.1792,-0.1477 -0.4016,-0.2332 -0.6336,-0.2435 z M 9.5100075,10.42 c -0.4494,0.2823 -0.9693,0.432 -1.5,0.432 -0.5307,0 -1.0506,-0.1497 -1.5,-0.432 -0.0369,-0.0337 -0.085,-0.0524 -0.135,-0.0524 -0.05,0 -0.0981,0.0187 -0.135,0.0524 -0.0194,0.0178 -0.0349,0.0394 -0.0455,0.0635 -0.0106,0.0241 -0.016,0.0502 -0.016,0.0765 0,0.0263 0.0054,0.0524 0.016,0.0765 0.0106,0.0241 0.0261,0.0457 0.0455,0.0635 0.5252,0.3564 1.1453,0.5469 1.78,0.5469 0.6347,0 1.2548,-0.1905 1.78,-0.5469 0.0194,-0.0178 0.0349,-0.0394 0.0455,-0.0635 0.0106,-0.0241 0.0161,-0.0502 0.0161,-0.0765 0,-0.0263 -0.0055,-0.0524 -0.0161,-0.0765 -0.0106,-0.0241 -0.0261,-0.0457 -0.0455,-0.0635 -0.0187,-0.0197 -0.0412,-0.0353 -0.0661,-0.046 -0.0249,-0.0107 -0.0518,-0.0163 -0.0789,-0.0163 -0.0271,0 -0.054,0.0056 -0.0789,0.0163 -0.0249,0.0107 -0.0474,0.0263 -0.0661,0.046 z m 0.25,-2.4199999 c -0.1582,0 -0.3129,0.0469 -0.4445,0.1348 -0.1315,0.0879 -0.2341,0.2129 -0.2946,0.3591 -0.0605,0.1461 -0.0764,0.307 -0.0455,0.4622 0.0308,0.1552 0.107,0.2977 0.2189,0.4096 0.1119,0.1119 0.2544,0.1881 0.4096,0.2189 0.1552,0.0309 0.3161,0.0151 0.4622995,-0.0455 0.1461,-0.0605 0.2711,-0.1631 0.359,-0.2946 0.0879,-0.1316 0.1348,-0.2863 0.1348,-0.4445 0,-0.2122 -0.0843,-0.4157 -0.2343,-0.5657 -0.15,-0.15 -0.3534995,-0.2343 -0.5656995,-0.2343 z"
     fill="#FFFFFF"
     id="path2" />
</svg>
