<?xml version="1.0" encoding="UTF-8" standalone="no"?>
<!-- Uploaded to: SVG Repo, www.svgrepo.com, Generator: SVG Repo Mixer Tools -->

<svg
   width="533.36011"
   height="533.36011"
   viewBox="0 0 16.000803 16.000804"
   fill="none"
   version="1.1"
   id="svg4"
   sodipodi:docname="youtube.svg"
   inkscape:version="1.1.2 (b8e25be833, 2022-02-05)"
   xmlns:inkscape="http://www.inkscape.org/namespaces/inkscape"
   xmlns:sodipodi="http://sodipodi.sourceforge.net/DTD/sodipodi-0.dtd"
   xmlns="http://www.w3.org/2000/svg"
   xmlns:svg="http://www.w3.org/2000/svg">
  <defs
     id="defs8" />
  <sodipodi:namedview
     id="namedview6"
     pagecolor="#ffffff"
     bordercolor="#999999"
     borderopacity="1"
     inkscape:pageshadow="0"
     inkscape:pageopacity="0"
     inkscape:pagecheckerboard="0"
     showgrid="false"
     inkscape:zoom="0.89875"
     inkscape:cx="266.48122"
     inkscape:cy="186.92629"
     inkscape:window-width="1920"
     inkscape:window-height="1009"
     inkscape:window-x="-8"
     inkscape:window-y="-8"
     inkscape:window-maximized="1"
     inkscape:current-layer="svg4" />
  <path
     d="m 15.670398,4.1454099 c -0.0889,-0.34272 -0.2672,-0.65569 -0.5167,-0.90693 -0.2495,-0.25124 -0.5612,-0.43175 -0.9033,-0.52308 -2.074,-0.24461 -4.1617,-0.35484 -6.2499998,-0.33 -2.08826,-0.02484 -4.17595,0.08539 -6.24999,0.33 -0.34208,0.09133 -0.65379,0.27184 -0.90326998,0.52308 -0.24949,0.25124 -0.4278,0.56421 -0.51673,0.90693 -0.22719,1.27394 -0.33765,2.56598 -0.33000000098,3.85998 C -0.00762178,9.3060899 0.10283822,10.60479 0.33040822,11.88539 c 0.09354,0.3372 0.2739,0.6439 0.52308,0.8896 0.24916998,0.2457 0.55843998,0.4217 0.89691998,0.5104 2.07404,0.2446 4.16173,0.3549 6.24999,0.33 2.0882998,0.0249 4.1759998,-0.0854 6.2499998,-0.33 0.3385,-0.0887 0.6478,-0.2647 0.8969,-0.5104 0.2492,-0.2457 0.4296,-0.5524 0.5231,-0.8896 0.2276,-1.2806 0.338,-2.5793001 0.33,-3.8800001 0.0077,-1.294 -0.1028,-2.58604 -0.33,-3.85998 z M 6.3603982,10.39539 V 5.6353999 l 4.1899998,2.36999 -4.1899998,2.3800001 z"
     fill="#FFFFFF"
     id="path2" />
</svg>
