<?xml version="1.0" encoding="UTF-8" standalone="no"?>
<!-- Uploaded to: SVG Repo, www.svgrepo.com, Generator: SVG Repo Mixer Tools -->

<svg
   height="800.00195"
   width="800.00195"
   version="1.1"
   id="_x32_"
   viewBox="0 0 512.00125 512.00125"
   xml:space="preserve"
   sodipodi:docname="sharp-1-svgrepo-com.svg"
   inkscape:version="1.1.2 (b8e25be833, 2022-02-05)"
   xmlns:inkscape="http://www.inkscape.org/namespaces/inkscape"
   xmlns:sodipodi="http://sodipodi.sourceforge.net/DTD/sodipodi-0.dtd"
   xmlns="http://www.w3.org/2000/svg"
   xmlns:svg="http://www.w3.org/2000/svg"><defs
   id="defs13" /><sodipodi:namedview
   id="namedview11"
   pagecolor="#ffffff"
   bordercolor="#999999"
   borderopacity="1"
   inkscape:pageshadow="0"
   inkscape:pageopacity="0"
   inkscape:pagecheckerboard="0"
   showgrid="false"
   inkscape:zoom="0.89875"
   inkscape:cx="269.81919"
   inkscape:cy="399.44367"
   inkscape:window-width="1920"
   inkscape:window-height="1009"
   inkscape:window-x="-8"
   inkscape:window-y="-8"
   inkscape:window-maximized="1"
   inkscape:current-layer="_x32_" />
<style
   type="text/css"
   id="style2">
	.st0{fill:#FFFFFF;}
</style>
<g
   id="g8"
   transform="translate(-8.75e-4)">
	<path
   class="st0"
   d="m 418.562,173.34 c 5.999,-1.291 10.281,-6.582 10.281,-12.724 V 103.86 c 0,-3.927 -1.775,-7.649 -4.834,-10.124 -3.058,-2.466 -7.07,-3.425 -10.912,-2.6 l -51.621,11.093 V 30.884 c 0,-3.856 -1.713,-7.515 -4.672,-9.99 -2.964,-2.475 -6.869,-3.507 -10.662,-2.816 l -38.686,7.013 c -6.192,1.121 -10.694,6.51 -10.694,12.805 v 78.242 l -80.658,17.333 V 64.117 c 0,-3.856 -1.713,-7.514 -4.672,-9.99 -2.958,-2.475 -6.864,-3.506 -10.662,-2.816 l -38.69,7.004 c -6.192,1.12 -10.693,6.511 -10.693,12.806 v 76.25 l -57.948,12.456 c -5.999,1.282 -10.281,6.59 -10.281,12.724 v 56.756 c 0,3.927 1.776,7.649 4.834,10.124 3.062,2.466 7.07,3.426 10.917,2.601 l 52.478,-11.281 v 108.39 l -57.948,12.456 c -5.999,1.282 -10.281,6.582 -10.281,12.715 v 56.737 c 0,3.928 1.776,7.649 4.834,10.125 3.062,2.466 7.07,3.425 10.917,2.6 l 52.478,-11.281 v 76.492 c 0,3.856 1.712,7.515 4.672,9.99 2.959,2.476 6.864,3.507 10.662,2.816 l 38.686,-6.995 c 6.192,-1.12 10.698,-6.51 10.698,-12.805 v -83.397 l 80.658,-17.334 v 74.502 c 0,3.865 1.712,7.524 4.672,9.99 2.96,2.475 6.865,3.506 10.662,2.815 l 38.686,-7.004 c 6.192,-1.121 10.694,-6.51 10.694,-12.805 V 377.35 l 57.087,-12.267 c 5.999,-1.291 10.281,-6.582 10.281,-12.724 V 295.63 c 0,-3.927 -1.775,-7.649 -4.834,-10.124 -3.058,-2.466 -7.07,-3.426 -10.912,-2.6 l -51.621,11.093 V 185.609 Z M 296.761,307.906 216.103,325.232 V 216.85 l 80.658,-17.334 z"
   id="path4" />
	<path
   class="st0"
   d="m 364.421,0.036 c 0.022,0 0.04,0 0.062,-0.009 L 364.65,0 Z"
   id="path6" />
</g>
</svg>
