<?xml version="1.0" encoding="UTF-8" standalone="no"?>
<!-- Uploaded to: SVG Repo, www.svgrepo.com, Generator: SVG Repo Mixer Tools -->

<svg
   fill="#FFFFFF"
   width="749.77502"
   height="749.77502"
   viewBox="0 0 29.991001 29.991001"
   version="1.1"
   id="svg6"
   sodipodi:docname="javascript-svgrepo-com.svg"
   inkscape:version="1.1.2 (b8e25be833, 2022-02-05)"
   xmlns:inkscape="http://www.inkscape.org/namespaces/inkscape"
   xmlns:sodipodi="http://sodipodi.sourceforge.net/DTD/sodipodi-0.dtd"
   xmlns="http://www.w3.org/2000/svg"
   xmlns:svg="http://www.w3.org/2000/svg">
  <defs
     id="defs10" />
  <sodipodi:namedview
     id="namedview8"
     pagecolor="#ffffff"
     bordercolor="#999999"
     borderopacity="1"
     inkscape:pageshadow="0"
     inkscape:pageopacity="0"
     inkscape:pagecheckerboard="0"
     showgrid="false"
     inkscape:zoom="0.89875"
     inkscape:cx="374.4089"
     inkscape:cy="373.85257"
     inkscape:window-width="1920"
     inkscape:window-height="1009"
     inkscape:window-x="-8"
     inkscape:window-y="-8"
     inkscape:window-maximized="1"
     inkscape:current-layer="svg6" />
  <title
     id="title2">javascript</title>
  <path
     d="M 16.309,13.785 H 13.5 c 0,2.422 -0.011,4.829 -0.011,7.254 0.033,0.329 0.051,0.712 0.051,1.099 0,0.81 -0.081,1.601 -0.236,2.365 l 0.013,-0.076 c -0.412,0.861 -1.475,0.751 -1.957,0.6 -0.451,-0.242 -0.808,-0.609 -1.031,-1.055 l -0.006,-0.014 c -0.044,-0.094 -0.097,-0.174 -0.16,-0.246 l 10e-4,0.001 -2.281,1.406 c 0.367,0.79 0.934,1.434 1.637,1.885 l 0.018,0.011 c 0.763,0.427 1.675,0.678 2.645,0.678 0.484,0 0.954,-0.063 1.401,-0.18 l -0.038,0.009 c 0.988,-0.248 1.793,-0.89 2.254,-1.744 l 0.009,-0.019 c 0.359,-0.914 0.566,-1.973 0.566,-3.08 0,-0.388 -0.026,-0.77 -0.075,-1.145 l 0.005,0.044 c 0.015,-2.567 0,-5.135 0,-7.722 z m 11.226,9.054 c -0.219,-1.368 -1.11,-2.518 -3.753,-3.59 -0.92,-0.431 -1.942,-0.731 -2.246,-1.425 -0.063,-0.158 -0.099,-0.341 -0.099,-0.532 0,-0.124 0.015,-0.244 0.044,-0.359 l -0.002,0.01 c 0.208,-0.55 0.731,-0.935 1.343,-0.935 0.199,0 0.388,0.04 0.559,0.113 l -0.009,-0.004 c 0.552,0.19 0.988,0.594 1.215,1.112 l 0.005,0.013 c 1.292,-0.845 1.292,-0.845 2.193,-1.406 -0.216,-0.369 -0.459,-0.689 -0.734,-0.977 l 0.002,0.002 c -0.767,-0.814 -1.852,-1.32 -3.056,-1.32 -0.171,0 -0.34,0.01 -0.505,0.03 l 0.02,-0.002 -0.881,0.111 c -0.856,0.194 -1.587,0.639 -2.133,1.252 l -0.003,0.004 c -0.535,0.665 -0.859,1.519 -0.859,2.449 0,1.279 0.613,2.415 1.56,3.131 l 0.01,0.007 c 1.706,1.275 4.2,1.555 4.519,2.755 0.3,1.462 -1.087,1.931 -2.457,1.762 -0.957,-0.218 -1.741,-0.83 -2.184,-1.652 l -0.009,-0.017 -2.287,1.313 c 0.269,0.536 0.607,0.994 1.011,1.385 L 18.8,26.07 c 2.174,2.194 7.61,2.082 8.586,-1.255 0.113,-0.364 0.178,-0.782 0.178,-1.215 0,-0.3 -0.031,-0.593 -0.091,-0.875 l 0.005,0.028 z M 0,0 H 29.991 V 29.991 H 0 Z"
     id="path4" />
</svg>
