<?xml version="1.0" encoding="UTF-8" standalone="no"?>
<!-- Uploaded to: SVG Repo, www.svgrepo.com, Generator: SVG Repo Mixer Tools -->

<svg
   fill="#ffffff"
   height="766.66669"
   width="766.66669"
   version="1.1"
   id="Filled_Icons"
   x="0px"
   y="0px"
   viewBox="0 0 23.000001 23.000001"
   enable-background="new 0 0 24 24"
   xml:space="preserve"
   sodipodi:docname="java-filled-svgrepo-com.svg"
   inkscape:version="1.1.2 (b8e25be833, 2022-02-05)"
   xmlns:inkscape="http://www.inkscape.org/namespaces/inkscape"
   xmlns:sodipodi="http://sodipodi.sourceforge.net/DTD/sodipodi-0.dtd"
   xmlns="http://www.w3.org/2000/svg"
   xmlns:svg="http://www.w3.org/2000/svg"><defs
   id="defs10" /><sodipodi:namedview
   id="namedview8"
   pagecolor="#ffffff"
   bordercolor="#999999"
   borderopacity="1"
   inkscape:pageshadow="0"
   inkscape:pageopacity="0"
   inkscape:pagecheckerboard="0"
   showgrid="false"
   inkscape:zoom="0.89875"
   inkscape:cx="366.62031"
   inkscape:cy="399.44367"
   inkscape:window-width="1920"
   inkscape:window-height="1009"
   inkscape:window-x="-8"
   inkscape:window-y="-8"
   inkscape:window-maximized="1"
   inkscape:current-layer="Filled_Icons" />
<g
   id="Java-Filled"
   transform="translate(-1)">
	<path
   d="m 20,18 c -2.21,0 -4,-1.79 -4,-4 0,-2.21 1.79,-4 4,-4 2.21,0 4,1.79 4,4 0,2.21 -1.79,4 -4,4 z m 0,-6 c -1.1,0 -2,0.9 -2,2 0,1.1 0.9,2 2,2 1.1,0 2,-0.9 2,-2 0,-1.1 -0.9,-2 -2,-2 z M 13,6 H 11 V 2 h 2 z M 10,6 H 8 V 0 h 2 z M 7,6 H 5 V 2 h 2 z"
   id="path2" />
	<path
   d="m 9,23 v 0 C 4.58,23 1,19.42 1,15 V 9 h 16 v 6 c 0,4.42 -3.58,8 -8,8 z"
   id="path4" />
</g>
</svg>
