<?xml version="1.0" encoding="UTF-8" standalone="no"?>
<!-- Uploaded to: SVG Repo, www.svgrepo.com, Generator: SVG Repo Mixer Tools -->

<svg
   fill="#ffffff"
   width="753.375"
   height="753.375"
   viewBox="0 0 30.135 30.135"
   version="1.1"
   id="svg6"
   sodipodi:docname="python-svgrepo-com.svg"
   inkscape:version="1.1.2 (b8e25be833, 2022-02-05)"
   xmlns:inkscape="http://www.inkscape.org/namespaces/inkscape"
   xmlns:sodipodi="http://sodipodi.sourceforge.net/DTD/sodipodi-0.dtd"
   xmlns="http://www.w3.org/2000/svg"
   xmlns:svg="http://www.w3.org/2000/svg"
   xmlns:rdf="http://www.w3.org/1999/02/22-rdf-syntax-ns#"
   xmlns:cc="http://creativecommons.org/ns#"
   xmlns:dc="http://purl.org/dc/elements/1.1/">
  <defs
     id="defs10" />
  <sodipodi:namedview
     id="namedview8"
     pagecolor="#ffffff"
     bordercolor="#999999"
     borderopacity="1"
     inkscape:pageshadow="0"
     inkscape:pageopacity="0"
     inkscape:pagecheckerboard="0"
     showgrid="false"
     inkscape:zoom="0.89875"
     inkscape:cx="393.32406"
     inkscape:cy="371.62726"
     inkscape:window-width="1920"
     inkscape:window-height="1009"
     inkscape:window-x="-8"
     inkscape:window-y="-8"
     inkscape:window-maximized="1"
     inkscape:current-layer="svg6" />
  <title
     id="title2">python</title>
  <path
     d="m 18.277,25.517 -0.287,0.412 -0.1,0.512 0.1,0.512 0.287,0.412 0.412,0.287 0.512,0.1 0.512,-0.1 0.412,-0.287 0.287,-0.412 0.1,-0.512 -0.1,-0.512 -0.287,-0.412 -0.412,-0.287 -0.512,-0.1 -0.512,0.1 z m 8.085,-17.807 0.35,0.075 0.4,0.15 0.437,0.225 0.45,0.337 0.45,0.437 0.437,0.587 0.4,0.737 0.35,0.912 0.262,1.1 0.175,1.3 0.062,1.537 -0.075,1.537 -0.2,1.3 -0.3,1.075 -0.4,0.887 -0.45,0.712 -0.5,0.562 -0.525,0.412 -0.525,0.3 -0.5,0.2 -0.45,0.112 -0.4,0.062 -0.3,0.025 -0.2,-0.012 H 15.038 v 1.025 h 7.298 l 0.012,3.449 0.025,0.45 -0.062,0.425 -0.137,0.387 -0.212,0.362 -0.312,0.312 -0.387,0.3 -0.475,0.25 -0.55,0.212 -0.637,0.187 -0.725,0.162 -0.8,0.112 -0.887,0.087 -0.962,0.05 -1.05,0.012 -1.587,-0.05 -1.337,-0.175 -1.125,-0.25 L 10.216,29.274 9.479,28.899 8.917,28.487 8.492,28.062 8.18,27.637 7.98,27.225 7.855,26.85 7.805,26.538 7.78,26.288 7.792,26.126 v -6.673 l 0.063,-0.8 0.162,-0.675 0.262,-0.575 0.325,-0.475 0.375,-0.4 0.412,-0.3 0.437,-0.25 0.437,-0.175 0.412,-0.125 0.375,-0.075 0.325,-0.05 0.262,-0.025 0.162,-0.012 h 7.298 l 0.862,-0.062 0.737,-0.175 0.625,-0.262 0.512,-0.35 0.412,-0.4 0.337,-0.437 0.25,-0.45 0.187,-0.45 0.125,-0.437 0.087,-0.4 0.05,-0.35 0.025,-0.262 V 7.657 h 2.612 l 0.175,0.012 z M 10.004,2.774 9.717,3.186 l -0.1,0.512 0.1,0.512 0.287,0.425 0.412,0.275 0.512,0.112 0.512,-0.113 0.412,-0.275 0.287,-0.425 0.1,-0.512 -0.1,-0.512 L 11.852,2.773 11.44,2.498 10.928,2.386 10.416,2.498 Z m 7.873,-2.475 1.125,0.25 0.912,0.325 0.737,0.375 0.562,0.4 0.425,0.425 0.312,0.425 0.2,0.412 0.125,0.375 0.05,0.325 0.025,0.25 -0.012,0.162 v 6.673 l -0.062,0.787 -0.162,0.687 -0.262,0.575 -0.325,0.475 -0.375,0.387 -0.412,0.312 -0.437,0.237 -0.437,0.175 -0.412,0.125 -0.375,0.087 -0.325,0.05 -0.263,0.025 h -7.46 l -0.862,0.062 -0.737,0.175 -0.625,0.275 -0.512,0.337 -0.412,0.4 -0.337,0.437 -0.25,0.45 -0.187,0.462 -0.125,0.437 -0.087,0.4 -0.05,0.337 -0.025,0.262 v 3.824 H 4.035 L 3.773,22.439 3.423,22.352 3.023,22.202 2.586,21.977 2.136,21.652 1.686,21.202 1.249,20.627 0.849,19.89 0.499,18.978 0.237,17.878 0.062,16.566 0,15.029 l 0.075,-1.524 0.2,-1.3 0.3,-1.087 0.4,-0.887 0.45,-0.712 0.5,-0.55 0.525,-0.412 0.525,-0.3 0.5,-0.2 0.45,-0.125 0.4,-0.062 0.3,-0.012 h 0.2 L 4.9,7.87 H 15.097 V 6.833 H 7.799 L 7.787,3.397 7.762,2.935 7.824,2.51 7.961,2.123 8.173,1.773 8.485,1.448 8.872,1.161 l 0.475,-0.25 0.55,-0.225 0.637,-0.187 0.725,-0.15 0.8,-0.125 0.887,-0.075 0.962,-0.05 1.05,-0.025 1.587,0.063 z"
     id="path4" />
  <metadata
     id="metadata822">
    <rdf:RDF>
      <cc:Work
         rdf:about="">
        <dc:title>python</dc:title>
      </cc:Work>
    </rdf:RDF>
  </metadata>
</svg>
