<?xml version="1.0" encoding="UTF-8" standalone="no"?>
<!-- Uploaded to: SVG Repo, www.svgrepo.com, Generator: SVG Repo Mixer Tools -->

<svg
   fill="#FFFFFF"
   width="800px"
   height="800px"
   viewBox="0 0 32 32"
   version="1.1"
   id="svg4"
   sodipodi:docname="typescript.svg"
   inkscape:version="1.1.2 (b8e25be833, 2022-02-05)"
   xmlns:inkscape="http://www.inkscape.org/namespaces/inkscape"
   xmlns:sodipodi="http://sodipodi.sourceforge.net/DTD/sodipodi-0.dtd"
   xmlns="http://www.w3.org/2000/svg"
   xmlns:svg="http://www.w3.org/2000/svg">
  <defs
     id="defs8" />
  <sodipodi:namedview
     id="namedview6"
     pagecolor="#ffffff"
     bordercolor="#999999"
     borderopacity="1"
     inkscape:pageshadow="0"
     inkscape:pageopacity="0"
     inkscape:pagecheckerboard="0"
     showgrid="false"
     inkscape:zoom="0.449375"
     inkscape:cx="412.79555"
     inkscape:cy="391.65508"
     inkscape:window-width="1920"
     inkscape:window-height="1009"
     inkscape:window-x="-8"
     inkscape:window-y="-8"
     inkscape:window-maximized="1"
     inkscape:current-layer="svg4" />
  <path
     d="M0 16v16h32v-32h-32zM25.786 14.724c0.813 0.203 1.432 0.568 2.005 1.156 0.292 0.312 0.729 0.885 0.766 1.026 0.010 0.042-1.38 0.974-2.224 1.495-0.031 0.021-0.156-0.109-0.292-0.313-0.411-0.599-0.844-0.859-1.505-0.906-0.969-0.063-1.594 0.443-1.589 1.292-0.005 0.208 0.042 0.417 0.135 0.599 0.214 0.443 0.615 0.708 1.854 1.245 2.292 0.984 3.271 1.635 3.88 2.557 0.682 1.031 0.833 2.677 0.375 3.906-0.51 1.328-1.771 2.234-3.542 2.531-0.547 0.099-1.849 0.083-2.438-0.026-1.286-0.229-2.505-0.865-3.255-1.698-0.297-0.323-0.87-1.172-0.833-1.229 0.016-0.021 0.146-0.104 0.292-0.188s0.682-0.396 1.188-0.688l0.922-0.536 0.193 0.286c0.271 0.411 0.859 0.974 1.214 1.161 1.021 0.542 2.422 0.464 3.115-0.156 0.281-0.234 0.438-0.594 0.417-0.958 0-0.37-0.047-0.536-0.24-0.813-0.25-0.354-0.755-0.656-2.198-1.281-1.651-0.714-2.365-1.151-3.010-1.854-0.406-0.464-0.708-1.010-0.88-1.599-0.12-0.453-0.151-1.589-0.057-2.042 0.339-1.599 1.547-2.708 3.281-3.036 0.563-0.109 1.875-0.068 2.427 0.068zM18.276 16.063l0.010 1.307h-4.167v11.839h-2.948v-11.839h-4.161v-1.281c0-0.714 0.016-1.307 0.036-1.323 0.016-0.021 2.547-0.031 5.62-0.026l5.594 0.016z"
     id="path2"
     style="fill:#ffffff;fill-opacity:1" />
</svg>
