<?xml version="1.0" encoding="UTF-8" standalone="no"?>
<!-- Uploaded to: SVG Repo, www.svgrepo.com, Generator: SVG Repo Mixer Tools -->

<svg
   fill="#FFFFFF"
   width="599.0816"
   height="599.0816"
   viewBox="0 0 23.963264 23.963264"
   id="Camada_1"
   version="1.1"
   xml:space="preserve"
   sodipodi:docname="android.svg"
   inkscape:version="1.1.2 (b8e25be833, 2022-02-05)"
   xmlns:inkscape="http://www.inkscape.org/namespaces/inkscape"
   xmlns:sodipodi="http://sodipodi.sourceforge.net/DTD/sodipodi-0.dtd"
   xmlns="http://www.w3.org/2000/svg"
   xmlns:svg="http://www.w3.org/2000/svg"><defs
     id="defs9" /><sodipodi:namedview
     id="namedview7"
     pagecolor="#ffffff"
     bordercolor="#999999"
     borderopacity="1"
     inkscape:pageshadow="0"
     inkscape:pageopacity="0"
     inkscape:pagecheckerboard="0"
     showgrid="false"
     inkscape:zoom="0.449375"
     inkscape:cx="323.78303"
     inkscape:cy="396.1057"
     inkscape:window-width="1920"
     inkscape:window-height="1009"
     inkscape:window-x="-8"
     inkscape:window-y="-8"
     inkscape:window-maximized="1"
     inkscape:current-layer="Camada_1" /><style
     type="text/css"
     id="style2">
	.st0{fill-rule:evenodd;clip-rule:evenodd;}
</style><path
     class="st0"
     d="M 9.7436961,-6.5306122e-7 H 14.243696 V 2.1999993 h 1.2 c 0.6,0 1,0.4 1,1 v 4.6 l -0.6,0.8 6.2,10.7999997 0.9,3.9 c 0.1,0.5 -0.5,0.9 -0.9,0.5 l -2.9,-2.7 -2,-3.5 c -1.6,0.9 -3.3,1.4 -5.2,1.4 -1.9,0 -3.5999999,-0.5 -5.0999999,-1.4 l -2,3.5 -2.9,2.7 c -0.4,0.4 -1.09999997,0 -0.9,-0.5 l 0.9,-3.9 2.3,-4.1 c -1.5,-1.7 -2.3,-4 -2.3,-6.3999997 0,-0.4 0,-0.8 0.1,-1.1 h 3 c -0.1,0.4 -0.1,0.7 -0.1,1.1 0,1.2999997 0.4,2.4999997 1,3.5999997 l 2.3,-3.8999997 -0.6,-0.8 v -4.6 c 0,-0.6 0.4,-1 1,-1 h 1.2 V -6.5306122e-7 Z M 10.343696,11.399999 l -1.9999999,3.6 c 1.1,0.6 2.2999999,1 3.5999999,1 1.3,0 2.6,-0.4 3.6,-1 l -2.1,-3.6 -0.8,1 c -0.4,0.5 -1.2,0.5 -1.6,0 z m -0.3,-3.5999997 v 0 c 0.4,0.7 1.1,1.1 1.9,1.1 0.8,0 1.6,-0.4 1.9,-1.1 0.2,-0.3 0.3,-0.7 0.3,-1.1 0,-1.2 -1,-2.2 -2.2,-2.2 -1.2,0 -2.1999999,1 -2.1999999,2.2 0,0.4 0.1,0.8 0.2999999,1.1 z"
     id="path4" /></svg>
