<?xml version="1.0" encoding="UTF-8" standalone="no"?>
<!-- Uploaded to: SVG Repo, www.svgrepo.com, Generator: SVG Repo Mixer Tools -->

<svg
   fill="#FFFFFF"
   width="749.09998"
   height="749.09998"
   viewBox="0 0 29.963999 29.964"
   version="1.1"
   id="svg6"
   sodipodi:docname="blender3d.svg"
   inkscape:version="1.1.2 (b8e25be833, 2022-02-05)"
   xmlns:inkscape="http://www.inkscape.org/namespaces/inkscape"
   xmlns:sodipodi="http://sodipodi.sourceforge.net/DTD/sodipodi-0.dtd"
   xmlns="http://www.w3.org/2000/svg"
   xmlns:svg="http://www.w3.org/2000/svg"
   xmlns:rdf="http://www.w3.org/1999/02/22-rdf-syntax-ns#"
   xmlns:cc="http://creativecommons.org/ns#"
   xmlns:dc="http://purl.org/dc/elements/1.1/">
  <defs
     id="defs10" />
  <sodipodi:namedview
     id="namedview8"
     pagecolor="#ffffff"
     bordercolor="#999999"
     borderopacity="1"
     inkscape:pageshadow="0"
     inkscape:pageopacity="0"
     inkscape:pagecheckerboard="0"
     showgrid="false"
     inkscape:zoom="0.63551222"
     inkscape:cx="298.18467"
     inkscape:cy="435.86888"
     inkscape:window-width="1920"
     inkscape:window-height="1009"
     inkscape:window-x="-8"
     inkscape:window-y="-8"
     inkscape:window-maximized="1"
     inkscape:current-layer="svg6" />
  <title
     id="title2">blender</title>
  <path
     d="m 24.265,20.696 c -1.224,1.198 -2.901,1.937 -4.751,1.937 -1.842,0 -3.513,-0.733 -4.738,-1.923 l 0.002,0.002 C 14.221,20.153 13.78,19.477 13.496,18.724 l -0.013,-0.039 c -0.2,-0.538 -0.315,-1.16 -0.315,-1.809 0,-0.95 0.247,-1.842 0.681,-2.615 l -0.014,0.027 c 0.379,-0.673 0.86,-1.241 1.43,-1.705 l 0.011,-0.008 c 1.157,-0.923 2.64,-1.481 4.253,-1.481 1.606,0 3.083,0.553 4.251,1.479 l -0.014,-0.011 c 0.581,0.47 1.062,1.037 1.424,1.679 l 0.015,0.029 c 0.348,0.615 0.581,1.34 0.651,2.111 l 0.002,0.021 c 0.012,0.136 0.02,0.295 0.02,0.455 0,0.649 -0.117,1.27 -0.33,1.844 l 0.012,-0.037 c -0.297,0.793 -0.737,1.471 -1.294,2.032 v 0 z M 9.1569998,18.521 c 0.04,0.638 0.154,1.233 0.334,1.8 l -0.014,-0.053 C 9.9079998,21.606 10.59,22.757 11.474,23.72 l -0.006,-0.007 c 0.956,1.048 2.115,1.893 3.417,2.474 l 0.065,0.026 c 1.341,0.6 2.907,0.95 4.555,0.95 1.661,0 3.238,-0.355 4.661,-0.994 l -0.072,0.029 c 1.366,-0.613 2.524,-1.461 3.473,-2.503 l 0.008,-0.008 c 0.876,-0.959 1.558,-2.112 1.971,-3.386 l 0.018,-0.066 c 0.254,-0.78 0.4,-1.677 0.4,-2.609 0,-0.435 -0.032,-0.862 -0.093,-1.28 l 0.006,0.047 c -0.19,-1.307 -0.638,-2.48 -1.291,-3.509 l 0.022,0.036 c -0.629,-0.999 -1.399,-1.844 -2.292,-2.536 l -0.022,-0.017 h 0.003 L 16.902,3.1539997 c -0.326,-0.221 -0.728,-0.353 -1.16,-0.353 -0.434,0 -0.838,0.133 -1.171,0.36 l 0.007,-0.005 c -0.337,0.181 -0.563,0.531 -0.563,0.934 0,0.338 0.159,0.639 0.406,0.833 l 0.002,0.002 -10e-4,0.001 3.906,3.178 -11.9250003,0.012 c -0.019,-10e-4 -0.042,-10e-4 -0.065,-10e-4 -0.946,0 -1.752,0.606 -2.049,1.45 l -0.005,0.015 c -0.192,0.8310003 0.475,1.5210003 1.5,1.5250003 v 0.002 L 11.82,11.095 1.0059997,19.395 C 0.39899975,19.774 -2.5e-7,20.439 -2.5e-7,21.196 c 0,0.402 0.112,0.778 0.307,1.099 l -0.005,-0.009 c 0.393,0.39 0.93399995,0.631 1.53099995,0.631 0.5950001,0 1.134,-0.239 1.5270001,-0.626 v 0 l 5.878,-4.81 c -0.043,0.306 -0.072,0.665 -0.079,1.03 V 18.52 Z M 15.605,16.5 c 0.069,-1.012 0.553,-1.9 1.281,-2.502 l 0.006,-0.005 c 0.746,-0.615 1.711,-0.987 2.764,-0.987 1.053,0 2.018,0.373 2.771,0.993 l -0.008,-0.006 c 0.734,0.606 1.217,1.494 1.284,2.495 l 0.001,0.011 c 0.003,0.05 0.004,0.108 0.004,0.166 0,0.993 -0.416,1.889 -1.083,2.523 l -0.002,0.001 c -0.774,0.726 -1.819,1.172 -2.968,1.172 -1.149,0 -2.194,-0.446 -2.97,-1.174 l 0.002,0.002 c -0.669,-0.635 -1.085,-1.531 -1.085,-2.524 0,-0.058 10e-4,-0.116 0.004,-0.174 v 0.008 z"
     id="path4" />
  <metadata
     id="metadata827">
    <rdf:RDF>
      <cc:Work
         rdf:about="">
        <dc:title>blender</dc:title>
      </cc:Work>
    </rdf:RDF>
  </metadata>
</svg>
