<?xml version="1.0" encoding="UTF-8" standalone="no"?>
<!-- Uploaded to: SVG Repo, www.svgrepo.com, Generator: SVG Repo Mixer Tools -->

<svg
   width="633.59729"
   height="633.59729"
   viewBox="0 0 19.007919 19.007918"
   fill="none"
   version="1.1"
   id="svg4"
   sodipodi:docname="discord.svg"
   inkscape:version="1.1.2 (b8e25be833, 2022-02-05)"
   xmlns:inkscape="http://www.inkscape.org/namespaces/inkscape"
   xmlns:sodipodi="http://sodipodi.sourceforge.net/DTD/sodipodi-0.dtd"
   xmlns="http://www.w3.org/2000/svg"
   xmlns:svg="http://www.w3.org/2000/svg">
  <defs
     id="defs8" />
  <sodipodi:namedview
     id="namedview6"
     pagecolor="#ffffff"
     bordercolor="#999999"
     borderopacity="1"
     inkscape:pageshadow="0"
     inkscape:pageopacity="0"
     inkscape:pagecheckerboard="0"
     showgrid="false"
     inkscape:zoom="0.89875"
     inkscape:cx="303.19889"
     inkscape:cy="371.62726"
     inkscape:window-width="1920"
     inkscape:window-height="1009"
     inkscape:window-x="-8"
     inkscape:window-y="-8"
     inkscape:window-maximized="1"
     inkscape:current-layer="svg4" />
  <path
     d="m 16.088348,3.3989442 c -1.23,-0.57 -2.54,-0.99 -3.92,-1.23 -0.17,0.3 -0.37,0.71 -0.5,1.04 -1.46,-0.22 -2.9099997,-0.22 -4.3399897,0 -0.14,-0.33 -0.34,-0.74 -0.51,-1.04 -1.38,0.24 -2.69,0.66 -3.92,1.23 -2.48000004,3.74 -3.15000004,7.3900298 -2.82000004,10.9800298 1.65000004,1.23 3.24000004,1.97 4.81000004,2.46 0.39,-0.53 0.73,-1.1 1.03,-1.69 -0.57,-0.21 -1.11,-0.48 -1.62,-0.79 0.14,-0.1 0.27,-0.21 0.4,-0.31 3.12999,1.46 6.5199897,1.46 9.6099897,0 0.13,0.11 0.26,0.21 0.4,0.31 -0.51,0.31 -1.06,0.57 -1.62,0.79 0.3,0.59 0.64,1.16 1.03,1.69 1.57,-0.49 3.17,-1.23 4.81,-2.46 0.39,-4.17 -0.67,-7.7800298 -2.82,-10.9800298 z M 6.3383583,12.178974 c -0.94,0 -1.71,-0.87 -1.71,-1.94 0,-1.0699998 0.75,-1.9399998 1.71,-1.9399998 0.96,0 1.71999,0.87 1.70999,1.9399998 0,1.06 -0.74999,1.94 -1.70999,1.94 z m 6.3099897,0 c -0.94,0 -1.71,-0.87 -1.71,-1.94 0,-1.0699998 0.75,-1.9399998 1.71,-1.9399998 0.96,0 1.72,0.87 1.71,1.9399998 0,1.06 -0.75,1.94 -1.71,1.94 z"
     fill="#FFFFFF"
     id="path2" />
</svg>
