<?xml version="1.0" encoding="UTF-8" standalone="no"?>
<!-- Uploaded to: SVG Repo, www.svgrepo.com, Generator: SVG Repo Mixer Tools -->

<svg
   fill="#FFFFFF"
   width="749.95001"
   height="749.95001"
   viewBox="0 0 29.998 29.998"
   version="1.1"
   id="svg6"
   sodipodi:docname="gimp.svg"
   inkscape:version="1.1.2 (b8e25be833, 2022-02-05)"
   xmlns:inkscape="http://www.inkscape.org/namespaces/inkscape"
   xmlns:sodipodi="http://sodipodi.sourceforge.net/DTD/sodipodi-0.dtd"
   xmlns="http://www.w3.org/2000/svg"
   xmlns:svg="http://www.w3.org/2000/svg"
   xmlns:rdf="http://www.w3.org/1999/02/22-rdf-syntax-ns#"
   xmlns:cc="http://creativecommons.org/ns#"
   xmlns:dc="http://purl.org/dc/elements/1.1/">
  <defs
     id="defs10" />
  <sodipodi:namedview
     id="namedview8"
     pagecolor="#ffffff"
     bordercolor="#999999"
     borderopacity="1"
     inkscape:pageshadow="0"
     inkscape:pageopacity="0"
     inkscape:pagecheckerboard="0"
     showgrid="false"
     inkscape:zoom="0.63551222"
     inkscape:cx="479.14106"
     inkscape:cy="412.26587"
     inkscape:window-width="1920"
     inkscape:window-height="1009"
     inkscape:window-x="-8"
     inkscape:window-y="-8"
     inkscape:window-maximized="1"
     inkscape:current-layer="svg6" />
  <title
     id="title2">gimp</title>
  <path
     d="m 18.699,16.755 -0.916,0.451 0.075,0.062 0.247,0.196 2.511,2.022 q 1.205,0.964 2.439,1.891 c -0.007,0.037 -0.011,0.079 -0.011,0.122 0,0.013 0,0.026 0.001,0.039 v -0.002 l 0.325,-0.05 0.129,0.19 2.895,1.839 c -0.045,0.176 -0.07,0.378 -0.07,0.586 0,0.454 0.122,0.88 0.335,1.246 l -0.006,-0.012 c 0.795,1.204 1.945,2.119 3.299,2.602 l 0.046,0.014 c -0.963,-2.459 -0.261,-4.46 -2.162,-5.165 -0.133,-0.058 -0.287,-0.091 -0.45,-0.091 -0.12,0 -0.236,0.018 -0.344,0.052 l 0.008,-0.002 -2.558,-2.368 -0.217,-0.065 -0.031,-0.327 c -0.058,0.023 -0.108,0.048 -0.155,0.076 l 0.005,-0.003 c -0.382,-0.325 -0.858,-0.671 -1.362,-1.018 -1.704,-1.043 -2.82,-1.625 -4.034,-2.287 z m 0.688,-0.125 c -0.06,0.066 -0.124,0.126 -0.192,0.181 l -0.003,0.003 0.262,0.144 c -0.016,-0.124 -0.04,-0.235 -0.071,-0.343 z M 9.065,10.426 c -0.574,0.007 -1.037,0.474 -1.037,1.05 0,0.58 0.47,1.05 1.05,1.05 0.58,0 1.05,-0.47 1.05,-1.05 0,-0.198 -0.055,-0.383 -0.15,-0.54 l 0.003,0.005 C 9.795,10.631 9.46,10.427 9.078,10.427 c -0.004,0 -0.009,0 -0.013,0 H 9.066 Z M 2.118,10.273 H 2.12 q 0.013,0 0.026,0 c 10e-4,0 0.002,0 0.003,0 0.331,0 0.631,0.132 0.851,0.347 v 0 c 0.218,0.213 0.352,0.509 0.352,0.838 0,0.329 -0.135,0.625 -0.353,0.838 v 0 c -0.219,0.214 -0.52,0.346 -0.851,0.346 -0.331,0 -0.633,-0.133 -0.852,-0.348 v 0 c -0.217,-0.213 -0.352,-0.51 -0.352,-0.838 0,-0.323 0.13,-0.615 0.341,-0.827 v 0 c 0.214,-0.215 0.507,-0.35 0.832,-0.358 H 2.118 Z M 15.792,9.474 c 0,0 -10e-4,0 -10e-4,0 -0.914,0 -1.656,0.741 -1.656,1.656 0,0.915 0.741,1.656 1.656,1.656 0.914,0 1.656,-0.741 1.656,-1.656 0,-0.304 -0.082,-0.59 -0.225,-0.835 l 0.004,0.008 C 16.935,9.804 16.402,9.474 15.793,9.474 v 0 z M 8.574,8.872 c 0.023,-10e-4 0.05,-10e-4 0.077,-10e-4 1.243,0 2.256,0.985 2.3,2.218 v 0.004 c -0.046,1.235 -1.059,2.219 -2.301,2.219 -0.027,0 -0.054,0 -0.081,-10e-4 h 0.004 c -0.023,10e-4 -0.049,10e-4 -0.076,10e-4 -1.242,0 -2.254,-0.984 -2.298,-2.215 V 11.093 C 6.243,9.856 7.257,8.87 8.501,8.87 c 0.026,0 0.051,0 0.076,0.001 H 8.573 Z M 24.81,2.049 c -0.132,-0.02 -0.285,0.134 -0.405,0.496 -0.196,0.587 -1.341,4.003 -6.878,5.406 0.74,0.62 1.21,1.54 1.22,2.571 v 0.002 c -0.072,1.949 -1.669,3.501 -3.628,3.501 -0.042,0 -0.085,-0.001 -0.127,-0.002 h 0.006 c -0.035,10e-4 -0.076,0.002 -0.118,0.002 -1.96,0 -3.557,-1.552 -3.628,-3.494 V 10.524 C 11.255,9.76 11.516,9.057 11.951,8.497 L 11.945,8.505 C 9.501,8.17 7.461,6.695 6.354,4.642 l -0.02,-0.04 -0.12,5.202 c 0.004,0.075 0.007,0.163 0.007,0.252 0,0.646 -0.126,1.262 -0.356,1.825 L 5.877,11.849 5.814,11.759 C 5.368,11.135 4.812,10.621 4.171,10.234 L 4.146,10.22 C 3.614,9.889 2.968,9.692 2.276,9.692 c -0.008,0 -0.016,0 -0.024,0 H 2.253 C 1.777,9.702 1.34,9.856 0.98,10.114 L 0.987,10.109 C 0.384,10.593 0,11.331 0,12.158 c 0,0.059 0.002,0.117 0.006,0.175 v -0.008 c 0.04,1.097 0.416,2.099 1.027,2.914 l -0.01,-0.013 c 0.508,0.716 1.17,1.291 1.939,1.685 l 0.03,0.014 c 0.423,0.229 0.926,0.363 1.461,0.363 0.242,0 0.477,-0.028 0.703,-0.08 l -0.021,0.004 c 3.745,2.774 10.599,5.184 15.284,2.356 l -2.53,-2.036 c -0.657,0.176 -1.412,0.278 -2.19,0.278 -1.191,0 -2.327,-0.237 -3.363,-0.668 l 0.058,0.021 c 0.712,0.235 1.531,0.37 2.381,0.37 1.593,0 3.076,-0.475 4.314,-1.29 l -0.029,0.018 c -0.247,-0.268 -0.541,-0.489 -0.87,-0.65 l -0.017,-0.008 c 0.456,0.101 0.85,0.319 1.163,0.621 l -10e-4,-0.001 c 0.17,0.218 0.273,0.495 0.273,0.796 0,0.007 0,0.014 0,0.021 v -10e-4 c 0.691,0.372 1.478,0.82 2.343,1.327 C 24.525,15.792 26.016,10.952 25.1,2.599 25.056,2.263 24.941,2.068 24.809,2.047 Z"
     id="path4" />
  <metadata
     id="metadata827">
    <rdf:RDF>
      <cc:Work
         rdf:about="">
        <dc:title>gimp</dc:title>
      </cc:Work>
    </rdf:RDF>
  </metadata>
</svg>
