<?xml version="1.0" encoding="UTF-8" standalone="no"?>
<!-- Uploaded to: SVG Repo, www.svgrepo.com, Generator: SVG Repo Mixer Tools -->

<svg
   width="533.33331"
   height="533.33331"
   viewBox="0 0 15.999999 15.999999"
   fill="none"
   version="1.1"
   id="svg4"
   sodipodi:docname="slack.svg"
   inkscape:version="1.1.2 (b8e25be833, 2022-02-05)"
   xmlns:inkscape="http://www.inkscape.org/namespaces/inkscape"
   xmlns:sodipodi="http://sodipodi.sourceforge.net/DTD/sodipodi-0.dtd"
   xmlns="http://www.w3.org/2000/svg"
   xmlns:svg="http://www.w3.org/2000/svg">
  <defs
     id="defs8" />
  <sodipodi:namedview
     id="namedview6"
     pagecolor="#ffffff"
     bordercolor="#999999"
     borderopacity="1"
     inkscape:pageshadow="0"
     inkscape:pageopacity="0"
     inkscape:pagecheckerboard="0"
     showgrid="false"
     inkscape:zoom="0.449375"
     inkscape:cx="277.05146"
     inkscape:cy="353.82476"
     inkscape:window-width="1920"
     inkscape:window-height="1009"
     inkscape:window-x="-8"
     inkscape:window-y="-8"
     inkscape:window-maximized="1"
     inkscape:current-layer="svg4" />
  <path
     d="m 3.36,10.11 c 0,0.3323 -0.09853,0.6571 -0.28313,0.9334 C 2.89227,11.3196 2.62989,11.535 2.32291,11.6621 2.01593,11.7893 1.67814,11.8225 1.35225,11.7577 1.02636,11.6929 0.72701,11.5329 0.49206,11.2979 0.25711,11.063 0.0971,10.7636 0.03228,10.4378 -0.03254,10.1119 7.3e-4,9.7741 0.12788,9.4671 0.25504,9.1601 0.47037,8.8977 0.74664,8.7131 1.02292,8.5285 1.34773,8.43 1.68,8.43 h 1.68 z m 0.85,0 C 4.21,9.6644 4.387,9.2371 4.70206,8.9221 5.01712,8.607 5.44444,8.43 5.89,8.43 6.3356,8.43 6.7629,8.607 7.0779,8.9221 7.393,9.2371 7.57,9.6644 7.57,10.11 v 4.21 c 0,0.4456 -0.177,0.8729 -0.4921,1.1879 C 6.7629,15.823 6.3356,16 5.89,16 5.44444,16 5.01712,15.823 4.70206,15.5079 4.387,15.1929 4.21,14.7656 4.21,14.32 Z M 5.89,3.36 C 5.55773,3.36 5.23292,3.26147 4.95664,3.07687 4.68037,2.89227 4.46504,2.62989 4.33788,2.32291 4.21073,2.01593 4.17746,1.67814 4.24228,1.35225 4.3071,1.02636 4.46711,0.72701 4.70206,0.49206 4.93701,0.25711 5.23636,0.0971 5.56225,0.03228 5.88814,-0.03254 6.2259,7.3e-4 6.5329,0.12788 6.8399,0.25504 7.1023,0.47037 7.2869,0.74664 7.4715,1.02292 7.57,1.34773 7.57,1.68 v 1.68 z m 0,0.85 c 0.4456,0 0.8729,0.177 1.1879,0.49206 C 7.393,5.01712 7.57,5.44444 7.57,5.89 7.57,6.3356 7.393,6.7629 7.0779,7.0779 6.7629,7.393 6.3356,7.57 5.89,7.57 H 1.68 C 1.23444,7.57 0.80712,7.393 0.49206,7.0779 0.177,6.7629 0,6.3356 0,5.89 0,5.44444 0.177,5.01712 0.49206,4.70206 0.80712,4.387 1.23444,4.21 1.68,4.21 Z m 6.75,1.68 c 0,-0.33227 0.0985,-0.65708 0.2831,-0.93336 0.1846,-0.27627 0.447,-0.4916 0.754,-0.61876 0.307,-0.12715 0.6448,-0.16042 0.9707,-0.0956 0.3258,0.06482 0.6252,0.22483 0.8601,0.45978 0.235,0.23495 0.395,0.5343 0.4598,0.86019 0.0648,0.32589 0.0316,0.66365 -0.0956,0.97065 -0.1271,0.307 -0.3425,0.5694 -0.6187,0.754 C 14.9771,7.4715 14.6523,7.57 14.32,7.57 h -1.68 z m -0.85,0 c 0,0.4456 -0.177,0.8729 -0.4921,1.1879 C 10.9829,7.393 10.5556,7.57 10.11,7.57 9.6644,7.57 9.2371,7.393 8.9221,7.0779 8.607,6.7629 8.43,6.3356 8.43,5.89 V 1.68 C 8.43,1.23444 8.607,0.80712 8.9221,0.49206 9.2371,0.177 9.6644,0 10.11,0 10.5556,0 10.9829,0.177 11.2979,0.49206 11.613,0.80712 11.79,1.23444 11.79,1.68 Z m -1.68,6.75 c 0.3323,0 0.6571,0.0985 0.9334,0.2831 0.2762,0.1846 0.4916,0.447 0.6187,0.754 0.1272,0.307 0.1604,0.6448 0.0956,0.9707 -0.0648,0.3258 -0.2248,0.6252 -0.4598,0.8601 -0.2349,0.235 -0.5343,0.395 -0.8601,0.4598 C 10.1119,16.0325 9.7741,15.9993 9.4671,15.8721 9.1601,15.745 8.8977,15.5296 8.7131,15.2534 8.5285,14.9771 8.43,14.6523 8.43,14.32 v -1.68 z m 0,-0.85 C 9.6644,11.79 9.2371,11.613 8.9221,11.2979 8.607,10.9829 8.43,10.5556 8.43,10.11 8.43,9.6644 8.607,9.2371 8.9221,8.9221 9.2371,8.607 9.6644,8.43 10.11,8.43 h 4.21 c 0.4456,0 0.8729,0.177 1.1879,0.4921 C 15.823,9.2371 16,9.6644 16,10.11 16,10.5556 15.823,10.9829 15.5079,11.2979 15.1929,11.613 14.7656,11.79 14.32,11.79 Z"
     fill="#FFFFFF"
     id="path2" />
</svg>
