<?xml version="1.0" encoding="UTF-8" standalone="no"?>
<!-- Uploaded to: SVG Repo, www.svgrepo.com, Generator: SVG Repo Mixer Tools -->

<svg
   fill="#FFFFFF"
   width="799.52502"
   height="799.52502"
   viewBox="0 0 31.981001 31.981001"
   version="1.1"
   id="svg4"
   sodipodi:docname="visualstudio.svg"
   inkscape:version="1.1.2 (b8e25be833, 2022-02-05)"
   xmlns:inkscape="http://www.inkscape.org/namespaces/inkscape"
   xmlns:sodipodi="http://sodipodi.sourceforge.net/DTD/sodipodi-0.dtd"
   xmlns="http://www.w3.org/2000/svg"
   xmlns:svg="http://www.w3.org/2000/svg">
  <defs
     id="defs8" />
  <sodipodi:namedview
     id="namedview6"
     pagecolor="#ffffff"
     bordercolor="#999999"
     borderopacity="1"
     inkscape:pageshadow="0"
     inkscape:pageopacity="0"
     inkscape:pagecheckerboard="0"
     showgrid="false"
     inkscape:zoom="0.31775611"
     inkscape:cx="407.54527"
     inkscape:cy="387.08933"
     inkscape:window-width="1920"
     inkscape:window-height="1009"
     inkscape:window-x="-8"
     inkscape:window-y="-8"
     inkscape:window-maximized="1"
     inkscape:current-layer="svg4" />
  <path
     d="m 23.429001,0.08355083 c -0.505,-0.005 -1,0.177 -1.375,0.521 -0.021,0.021 -0.047,0.042 -0.068,0.063 l -10.62,11.74499917 -6.2030005,-5.0829992 -0.542,-0.469 c -0.38,-0.313 -0.906,-0.396 -1.365,-0.203 -0.005,0 -0.01,0.005 -0.016,0.005 l -2.422,1 c -0.031,0.016 -0.068,0.031 -0.099,0.047 -0.026,0.016 -0.047,0.026 -0.068,0.036 -0.016,0.01 -0.031,0.021 -0.047,0.031 -0.021,0.016 -0.047,0.031 -0.068,0.047 -0.01,0.01 -0.026,0.021 -0.036,0.031 -0.021,0.016 -0.042,0.031 -0.057,0.047 -0.021,0.016 -0.036,0.031 -0.052,0.047 -0.01,0.01 -0.026,0.026 -0.042,0.047 -0.016,0.016 -0.031,0.031 -0.042,0.047 -0.016,0.021 -0.031,0.042 -0.047,0.063 -0.01,0.01 -0.021,0.026 -0.031,0.042 -0.016,0.021 -0.031,0.047 -0.047,0.068 -0.005,0.016 -0.016,0.031 -0.026,0.047 -0.01,0.021 -0.021,0.042 -0.031,0.068 -0.01,0.021 -0.016,0.036 -0.026,0.057 -0.005,0.021 -0.016,0.042 -0.021,0.063 -0.01,0.021 -0.016,0.042 -0.021,0.063 -0.01,0.021 -0.016,0.047 -0.021,0.073 -0.005,0.016 -0.01,0.031 -0.016,0.052 0,0.021 -0.005,0.047 -0.01,0.073 0,0.021 -0.005,0.042 -0.005,0.068 -0.005,0.036 -0.005,0.073 -0.005,0.109 V 23.09655 c 0,0.536 0.323,1.021 0.818,1.224 l 2.422,1.021 c 0.464,0.193 1,0.104 1.38,-0.219 l 0.542,-0.469 6.2030005,-5.083 10.62,11.745 c 0.031,0.031 0.068,0.063 0.099,0.089 0.026,0.021 0.052,0.047 0.078,0.068 0.021,0.021 0.047,0.036 0.073,0.057 0.031,0.021 0.057,0.036 0.083,0.057 0.031,0.016 0.063,0.036 0.089,0.052 0.031,0.016 0.057,0.031 0.089,0.047 0.032,0.016 0.057,0.026 0.089,0.042 0.031,0.016 0.063,0.026 0.094,0.036 0.031,0.016 0.068,0.026 0.099,0.036 0.026,0.01 0.057,0.016 0.089,0.026 0.032,0.01 0.068,0.021 0.104,0.026 0.031,0.005 0.063,0.016 0.094,0.021 0.031,0.005 0.063,0.01 0.099,0.01 0.031,0.005 0.068,0.01 0.099,0.01 0.031,0 0.063,0.005 0.099,0.005 0.031,0 0.068,0 0.099,0 0.036,0 0.073,-0.005 0.104,-0.005 0.031,-0.005 0.063,-0.01 0.089,-0.01 0.042,-0.005 0.078,-0.01 0.12,-0.021 0.026,-0.005 0.052,-0.01 0.078,-0.016 0.036,-0.01 0.073,-0.016 0.109,-0.031 0.026,-0.005 0.057,-0.016 0.089,-0.026 0.032,-0.01 0.063,-0.021 0.094,-0.036 0.042,-0.016 0.078,-0.031 0.12,-0.047 l 6.589,-3.172 c 0.24,-0.115 0.458,-0.276 0.63,-0.479 0.047,-0.047 0.083,-0.099 0.125,-0.151 0,0 0,-0.005 0.005,-0.01 0.036,-0.052 0.073,-0.109 0.103999,-0.167 0.031,-0.052 0.057,-0.104 0.083,-0.156 0.005,-0.01 0.005,-0.016 0.01,-0.026 0.021,-0.047 0.042,-0.094 0.057,-0.141 0.005,-0.016 0.01,-0.031 0.016,-0.052 0.016,-0.047 0.031,-0.094 0.042,-0.141 0.005,-0.016 0.01,-0.031 0.01,-0.047 0.01,-0.047 0.016,-0.094 0.026,-0.135 0,-0.021 0.005,-0.047 0.01,-0.068 0,-0.042 0.005,-0.078 0.005,-0.12 0.005,-0.036 0.005,-0.073 0.005,-0.104 V 5.2525508 c 0,-0.016 0,-0.031 0,-0.047 0,-0.063 -0.005,-0.13 -0.01,-0.198 -0.083,-0.677 -0.505,-1.266 -1.12,-1.557 L 24.262001,0.28355083 c -0.26,-0.125 -0.542,-0.193 -0.828,-0.198 z m 0.557,9.13499997 V 22.76055 l -8.26,-6.771 z M 3.9960005,11.42155 l 4.13,4.568 -4.13,4.568 z"
     id="path2" />
</svg>
