<?xml version="1.0" encoding="UTF-8" standalone="no"?>
<!-- Uploaded to: SVG Repo, www.svgrepo.com, Generator: SVG Repo Mixer Tools -->

<svg
   fill="#FFFFFF"
   width="800.02191"
   height="800.02191"
   viewBox="0 0 32.000876 32.000876"
   version="1.1"
   id="svg4"
   sodipodi:docname="vscode.svg"
   inkscape:version="1.1.2 (b8e25be833, 2022-02-05)"
   xmlns:inkscape="http://www.inkscape.org/namespaces/inkscape"
   xmlns:sodipodi="http://sodipodi.sourceforge.net/DTD/sodipodi-0.dtd"
   xmlns="http://www.w3.org/2000/svg"
   xmlns:svg="http://www.w3.org/2000/svg">
  <defs
     id="defs8" />
  <sodipodi:namedview
     id="namedview6"
     pagecolor="#ffffff"
     bordercolor="#999999"
     borderopacity="1"
     inkscape:pageshadow="0"
     inkscape:pageopacity="0"
     inkscape:pagecheckerboard="0"
     showgrid="false"
     inkscape:zoom="0.449375"
     inkscape:cx="225.86926"
     inkscape:cy="420.58414"
     inkscape:window-width="1920"
     inkscape:window-height="1009"
     inkscape:window-x="-8"
     inkscape:window-y="-8"
     inkscape:window-maximized="1"
     inkscape:current-layer="svg4" />
  <path
     d="m 30.863876,3.4494379 -6.583,-3.16699994 c -0.766,-0.37 -1.677,-0.214 -2.276,0.385 L 9.3958765,12.172438 l -5.495,-4.1670001 c -0.51,-0.391 -1.229,-0.359 -1.703,0.073 l -1.75999998,1.604 c -0.583,0.5260001 -0.583,1.4430001 -0.005,1.9690001 l 4.76599998,4.349 -4.76599998,4.349 c -0.578,0.526 -0.578,1.443 0.005,1.969 l 1.75999998,1.604 c 0.479,0.432 1.193,0.464 1.703,0.073 l 5.495,-4.172 12.6149995,11.51 c 0.594,0.599 1.505,0.755 2.271,0.385 l 6.589,-3.172 c 0.693,-0.333 1.13,-1.031 1.13,-1.802 V 5.2494379 c 0,-0.766 -0.443,-1.469 -1.135,-1.802 z m -6.86,19.8180001 -9.573,-7.266 9.573,-7.2660001 z"
     id="path2" />
</svg>
