<?xml version="1.0" encoding="UTF-8" standalone="no"?>
<!-- Uploaded to: SVG Repo, www.svgrepo.com, Generator: SVG Repo Mixer Tools -->

<svg
   fill="#FFFFFF"
   width="685.71429"
   height="685.71429"
   viewBox="0 0 12 12"
   role="img"
   focusable="false"
   aria-hidden="true"
   version="1.1"
   id="svg4"
   sodipodi:docname="word.svg"
   inkscape:version="1.1.2 (b8e25be833, 2022-02-05)"
   xmlns:inkscape="http://www.inkscape.org/namespaces/inkscape"
   xmlns:sodipodi="http://sodipodi.sourceforge.net/DTD/sodipodi-0.dtd"
   xmlns="http://www.w3.org/2000/svg"
   xmlns:svg="http://www.w3.org/2000/svg">
  <defs
     id="defs8" />
  <sodipodi:namedview
     id="namedview6"
     pagecolor="#ffffff"
     bordercolor="#999999"
     borderopacity="1"
     inkscape:pageshadow="0"
     inkscape:pageopacity="0"
     inkscape:pagecheckerboard="0"
     showgrid="false"
     inkscape:zoom="0.449375"
     inkscape:cx="555.21558"
     inkscape:cy="360.5007"
     inkscape:window-width="1920"
     inkscape:window-height="1009"
     inkscape:window-x="-8"
     inkscape:window-y="-8"
     inkscape:window-maximized="1"
     inkscape:current-layer="svg4" />
  <path
     d="m 11.999992,1.866331 v 8.273839 c 0,0.0705 -0.025,0.127505 -0.0745,0.173007 -0.0505,0.047 -0.110505,0.069 -0.180008,0.069 H 7.4658089 V 9.23463 H 10.956952 V 8.712108 H 7.4628088 V 8.072582 H 10.953952 V 7.550561 H 7.4653089 V 6.905534 H 10.955452 V 6.389513 H 7.4653089 V 5.742987 H 10.955452 V 5.220965 H 7.4653089 V 4.581439 H 10.955452 V 4.059918 H 7.4653089 V 3.407391 H 10.955452 V 2.91037 H 7.4653089 V 1.613817 h 4.2811751 c 0.0745,0 0.135006,0.024 0.179008,0.0745 0.0525,0.0495 0.075,0.110005 0.0745,0.178008 z M 6.8252797,0.320267 V 11.681733 L -7.1603333e-8,10.500685 V 1.533317 L 6.8252797,0.318267 Z M 5.7952374,3.674405 4.9407024,3.726905 4.3926799,7.119544 H 4.3801789 C 4.3531783,6.959039 4.2526742,6.397016 4.0726668,5.435977 L 3.7531537,3.80441 2.9511209,3.84441 2.6301077,5.435975 C 2.4426,6.363013 2.3380957,6.902535 2.3105946,7.054041 h -0.0075 l -0.48752,-3.125128 -0.7350301,0.039 0.7875323,3.941661 0.8170335,0.0525 0.3075126,-1.534063 C 3.1726299,5.527981 3.2776342,5.004959 3.3001352,4.861953 h 0.022501 c 0.030501,0.152507 0.1280052,0.687029 0.3075126,1.605066 l 0.3075126,1.579065 0.8850363,0.0525 0.9900406,-4.425181 h -0.017501 z"
     id="path2" />
</svg>
