<?xml version="1.0" encoding="UTF-8" standalone="no"?>
<!-- Uploaded to: SVG Repo, www.svgrepo.com, Generator: SVG Repo Mixer Tools -->

<svg
   fill="#FFFFFF"
   width="666.44922"
   height="666.44922"
   viewBox="0 0 19.993477 19.993477"
   version="1.1"
   id="svg8"
   sodipodi:docname="c-plus-plus-svgrepo-com.svg"
   inkscape:version="1.1.2 (b8e25be833, 2022-02-05)"
   xmlns:inkscape="http://www.inkscape.org/namespaces/inkscape"
   xmlns:sodipodi="http://sodipodi.sourceforge.net/DTD/sodipodi-0.dtd"
   xmlns="http://www.w3.org/2000/svg"
   xmlns:svg="http://www.w3.org/2000/svg">
  <defs
     id="defs12" />
  <sodipodi:namedview
     id="namedview10"
     pagecolor="#ffffff"
     bordercolor="#999999"
     borderopacity="1"
     inkscape:pageshadow="0"
     inkscape:pageopacity="0"
     inkscape:pagecheckerboard="0"
     showgrid="false"
     inkscape:zoom="0.63551222"
     inkscape:cx="175.44903"
     inkscape:cy="317.85384"
     inkscape:window-width="1920"
     inkscape:window-height="1009"
     inkscape:window-x="-8"
     inkscape:window-y="-8"
     inkscape:window-maximized="1"
     inkscape:current-layer="svg8" />
  <path
     id="path2"
     style="stroke-width:0.999999"
     d="m 9.9958593,-3.75e-7 c -0.2788749,0 -0.5576016,0.061249975 -0.7691016,0.183749995 L 1.8817383,4.4237105 C 1.4597382,4.6677107 1.11375,5.2677185 1.11375,5.7567185 v 8.4800395 c 0,0.244861 0.085902,0.51666 0.2257617,0.757558 l -7.62e-4,4.11e-4 c 0.1400001,0.242001 0.3319884,0.453039 0.5429883,0.57504 l 7.3450194,4.23996 c 0.423,0.245001 1.1149646,0.245001 1.5389646,0 l 7.34502,-4.239961 c 0.211,-0.122 0.402989,-0.333039 0.542989,-0.575039 0.139999,-0.241 0.225996,-0.512969 0.225996,-0.757969 V 5.7567185 c 0,-0.2450001 -0.086,-0.516969 -0.225996,-0.7579689 l -5.045977,2.9129883 -1.046016,0.6049806 -9.96e-4,-9.96e-4 A 2.971,2.971 0 0 0 9.9967383,7.0357613 2.964,2.964 0 0 0 7.4327343,11.476758 L 9.9967383,9.9967379 7.4337306,11.476758 a 2.964,2.964 0 0 0 2.5630077,1.480957 2.97,2.97 0 0 0 2.5649997,-1.480957 l 2.563008,1.483008 A 5.9439999,5.9439999 0 0 1 9.9957423,15.91875 5.9259999,5.9259999 0 0 1 4.8679689,12.957129 l 7.62e-4,-4.11e-4 A 5.883,5.883 0 0 1 4.0747266,9.9967379 5.928,5.928 0 0 1 9.9967383,4.0747262 5.946,5.946 0 0 1 15.125742,7.0337105 L 13.626738,7.9007222 18.653731,4.9987496 A 1.579,1.579 0 0 0 18.110742,4.4237105 L 10.765723,0.18374962 C 10.553723,0.0612496 10.274734,-3.75e-7 9.9958593,-3.75e-7 Z M 14.603731,9.0097262 h 0.657011 V 9.6677339 H 15.91875 V 10.325742 H 15.260742 V 10.98375 H 14.603731 V 10.325742 H 13.945723 V 9.6677339 h 0.658008 z m 2.467031,0 h 0.657949 v 0.6580077 h 0.658008 V 10.325742 H 17.728711 V 10.98375 H 17.070762 V 10.325742 H 16.41375 V 9.6677339 h 0.657012 z" />
</svg>
