<?xml version="1.0" encoding="UTF-8" standalone="no"?>
<!-- Uploaded to: SVG Repo, www.svgrepo.com, Generator: SVG Repo Mixer Tools -->

<svg
   width="800px"
   height="800px"
   viewBox="0 0 24 24"
   fill="none"
   version="1.1"
   id="svg4"
   sodipodi:docname="github-svgrepo-com.svg"
   inkscape:version="1.1.2 (b8e25be833, 2022-02-05)"
   xmlns:inkscape="http://www.inkscape.org/namespaces/inkscape"
   xmlns:sodipodi="http://sodipodi.sourceforge.net/DTD/sodipodi-0.dtd"
   xmlns="http://www.w3.org/2000/svg"
   xmlns:svg="http://www.w3.org/2000/svg">
  <defs
     id="defs8" />
  <sodipodi:namedview
     id="namedview6"
     pagecolor="#ffffff"
     bordercolor="#999999"
     borderopacity="1"
     inkscape:pageshadow="0"
     inkscape:pageopacity="0"
     inkscape:pagecheckerboard="true"
     showgrid="false"
     inkscape:zoom="0.89875"
     inkscape:cx="157.44089"
     inkscape:cy="484.00556"
     inkscape:window-width="1920"
     inkscape:window-height="1009"
     inkscape:window-x="-8"
     inkscape:window-y="-8"
     inkscape:window-maximized="1"
     inkscape:current-layer="svg4" />
  <path
     d="M 11.9,4.00002 C 10.8454,3.99009 9.79962,4.19333 8.82547,4.59754 7.85132,5.00175 6.96887,5.5986 6.23107,6.35227 5.49328,7.10594 4.91535,8.0009 4.53197,8.98343 4.14859,9.96597 3.96765,11.0158 4.00003,12.07 3.97211,13.7969 4.48426,15.4894 5.46493,16.9111 6.4456,18.3328 7.84582,19.4127 9.47003,20 9.88003,20.07 10.03,19.81 10.03,19.6 v -2 c 0,0 -2.25997,0.5 -2.73997,-1 0,0 -0.36,-1 -0.89,-1.21 0,0 -0.74,-0.52 0.05,-0.51 0.25874,0.0349 0.5057,0.13 0.72105,0.2776 0.21535,0.1476 0.39309,0.3437 0.51895,0.5724 0.10463,0.2051 0.25007,0.3867 0.42739,0.5335 0.17731,0.1469 0.38277,0.256 0.60376,0.3206 0.221,0.0646 0.45286,0.0834 0.68137,0.0552 C 9.63106,16.6111 9.85139,16.5364 10.05,16.42 10.0879,16.0025 10.2679,15.6107 10.56,15.31 8.76003,15.1 6.94003,14.84 6.94003,11.65 6.92091,11.2896 6.97881,10.9293 7.10985,10.5931 7.2409,10.2569 7.44209,9.95241 7.70003,9.70002 c -0.24336,-0.73203 -0.21496,-1.5272 0.08,-2.24 0.68,-0.22 2.22997,0.89 2.22997,0.89 1.3242,-0.37347 2.7259,-0.37347 4.05,0 0,0 1.55,-1.11 2.23,-0.89 0.3014,0.7114 0.3298,1.50892 0.08,2.24 0.2671,0.24891 0.4789,0.55108 0.6219,0.88698 0.1429,0.3359 0.2138,0.698 0.2081,1.063 0,3.2 -1.9,3.45 -3.7,3.66 0.1809,0.2029 0.3186,0.4406 0.4046,0.6985 0.0859,0.2579 0.1184,0.5306 0.0954,0.8015 v 2.77 c -6e-4,0.0675 0.015,0.1342 0.0456,0.1944 0.0307,0.0602 0.0753,0.1122 0.1303,0.1514 0.0549,0.0393 0.1186,0.0647 0.1854,0.0741 0.0669,0.0095 0.1351,0.0026 0.1987,-0.0199 1.6213,-0.5822 3.0186,-1.659 3.9947,-3.0783 C 19.5309,15.4824 20.0364,13.7922 20,12.07 20.0094,11.0051 19.8061,9.94902 19.402,8.96371 18.9979,7.9784 18.4011,7.08369 17.6467,6.33205 16.8923,5.58041 15.9953,4.98696 15.0085,4.58651 14.0217,4.18606 12.9649,3.98667 11.9,4.00002 Z"
     fill="#ffffff"
     id="path2"
     sodipodi:nodetypes="cscccscsccccsccssccccccccccccccccccccccsssc" />
</svg>
