<?xml version="1.0" encoding="UTF-8" standalone="no"?>
<!-- Uploaded to: SVG Repo, www.svgrepo.com, Generator: SVG Repo Mixer Tools -->

<svg
   width="533.74152"
   height="533.74152"
   viewBox="0 0 16.012245 16.012245"
   fill="none"
   version="1.1"
   id="svg4"
   sodipodi:docname="github.svg"
   inkscape:version="1.1.2 (b8e25be833, 2022-02-05)"
   xmlns:inkscape="http://www.inkscape.org/namespaces/inkscape"
   xmlns:sodipodi="http://sodipodi.sourceforge.net/DTD/sodipodi-0.dtd"
   xmlns="http://www.w3.org/2000/svg"
   xmlns:svg="http://www.w3.org/2000/svg">
  <defs
     id="defs8" />
  <sodipodi:namedview
     id="namedview6"
     pagecolor="#ffffff"
     bordercolor="#999999"
     borderopacity="1"
     inkscape:pageshadow="0"
     inkscape:pageopacity="0"
     inkscape:pagecheckerboard="true"
     showgrid="false"
     inkscape:zoom="0.89875"
     inkscape:cx="214.18637"
     inkscape:cy="304.86787"
     inkscape:window-width="1920"
     inkscape:window-height="1009"
     inkscape:window-x="-8"
     inkscape:window-y="-8"
     inkscape:window-maximized="1"
     inkscape:current-layer="svg4" />
  <path
     d="M 7.903661,6.2867222e-4 C 6.849061,-0.00930133 5.803281,0.19393867 4.829131,0.59814867 3.854981,1.0023587 2.972531,1.5992087 2.234731,2.3528787 c -0.73779,0.75367 -1.31571999,1.64863 -1.69909999,2.63116 -0.38338,0.98254 -0.56432,2.03237 -0.53194,3.08657 -0.02792,1.7269 0.48423,3.4194003 1.46489999,4.8411003 0.98067,1.4217 2.38089,2.5016 4.0051,3.0889 0.41,0.07 0.55997,-0.19 0.55997,-0.4 v -2 c 0,0 -2.25997,0.5 -2.73997,-1 0,0 -0.36,-1 -0.89,-1.21 0,0 -0.74,-0.52 0.05,-0.51 0.25874,0.0349 0.5057,0.13 0.72105,0.2776 0.21535,0.1476 0.39309,0.3437 0.51895,0.5724 0.10463,0.2051 0.25007,0.3867 0.42739,0.5335 0.17731,0.1469 0.38277,0.256 0.60376,0.3206 0.221,0.0646 0.45286,0.0834 0.68137,0.0552 0.22851,-0.0282 0.44884,-0.1029 0.64745,-0.2193 0.0379,-0.4175 0.2179,-0.8093 0.51,-1.11 -1.79997,-0.21 -3.61997,-0.47 -3.61997,-3.6600003 -0.01912,-0.3604 0.03878,-0.7207 0.16982,-1.0569 0.13105,-0.3362 0.33224,-0.64069 0.59018,-0.89308 -0.24336,-0.73203 -0.21496,-1.5272 0.08,-2.24 0.68,-0.22 2.22997,0.89 2.22997,0.89 1.3242,-0.37347 2.7259,-0.37347 4.05,0 0,0 1.55,-1.11 2.23,-0.89 0.3014,0.7114 0.3298,1.50892 0.08,2.24 0.2671,0.24891 0.4789,0.55108 0.6219,0.88698 0.1429,0.3359 0.2138,0.698 0.2081,1.063 0,3.2000003 -1.9,3.4500003 -3.7,3.6600003 0.1809,0.2029 0.3186,0.4406 0.4046,0.6985 0.0859,0.2579 0.1184,0.5306 0.0954,0.8015 v 2.77 c -6e-4,0.0675 0.015,0.1342 0.0456,0.1944 0.0307,0.0602 0.0753,0.1122 0.1303,0.1514 0.0549,0.0393 0.1186,0.0647 0.1854,0.0741 0.0669,0.0095 0.1351,0.0026 0.1987,-0.0199 1.6213,-0.5822 3.0186,-1.659 3.9947,-3.0783 0.9762,-1.4193 1.4817,-3.1095003 1.4453,-4.8317003 0.0094,-1.0649 -0.1939,-2.12098 -0.598,-3.10629 -0.4041,-0.98531 -1.0009,-1.88002 -1.7553,-2.63166 -0.7544,-0.75164 -1.6514,-1.34509003 -2.6382,-1.74554003 -0.9868,-0.40045 -2.0436,-0.59984 -3.1085,-0.58648999778 z"
     fill="#ffffff"
     id="path2"
     sodipodi:nodetypes="cscccscsccccsccssccccccccccccccccccccccsssc" />
</svg>
