<?xml version="1.0" encoding="UTF-8" standalone="no"?>
<!-- Created with Inkscape (http://www.inkscape.org/) -->

<svg
   width="642.37347"
   height="735.45654"
   id="svg2"
   version="1.1"
   inkscape:version="1.1.2 (b8e25be833, 2022-02-05)"
   sodipodi:docname="scarab-white.svg"
   xmlns:inkscape="http://www.inkscape.org/namespaces/inkscape"
   xmlns:sodipodi="http://sodipodi.sourceforge.net/DTD/sodipodi-0.dtd"
   xmlns="http://www.w3.org/2000/svg"
   xmlns:svg="http://www.w3.org/2000/svg"
   xmlns:rdf="http://www.w3.org/1999/02/22-rdf-syntax-ns#"
   xmlns:cc="http://creativecommons.org/ns#"
   xmlns:dc="http://purl.org/dc/elements/1.1/">
  <defs
     id="defs4">
    <inkscape:perspective
       sodipodi:type="inkscape:persp3d"
       inkscape:vp_x="0 : 511.63763 : 1"
       inkscape:vp_y="0 : 1000 : 0"
       inkscape:vp_z="744.09448 : 511.63763 : 1"
       inkscape:persp3d-origin="372.04724 : 336.24393 : 1"
       id="perspective10" />
    <inkscape:perspective
       id="perspective2987"
       inkscape:persp3d-origin="0.5 : -14.210124 : 1"
       inkscape:vp_z="1 : -14.043457 : 1"
       inkscape:vp_y="0 : 1000 : 0"
       inkscape:vp_x="0 : -14.043457 : 1"
       sodipodi:type="inkscape:persp3d" />
  </defs>
  <sodipodi:namedview
     id="base"
     pagecolor="#757575"
     bordercolor="#666666"
     borderopacity="1.0"
     inkscape:pageopacity="1"
     inkscape:pageshadow="2"
     inkscape:zoom="0.49497475"
     inkscape:cx="326.27927"
     inkscape:cy="393.95949"
     inkscape:document-units="px"
     inkscape:current-layer="layer1"
     showgrid="false"
     inkscape:showpageshadow="false"
     inkscape:window-width="1920"
     inkscape:window-height="1009"
     inkscape:window-x="-8"
     inkscape:window-y="-8"
     inkscape:window-maximized="1"
     inkscape:pagecheckerboard="0" />
  <metadata
     id="metadata7">
    <rdf:RDF>
      <cc:Work
         rdf:about="">
        <dc:format>image/svg+xml</dc:format>
        <dc:type
           rdf:resource="http://purl.org/dc/dcmitype/StillImage" />
        <dc:title />
      </cc:Work>
    </rdf:RDF>
  </metadata>
  <g
     inkscape:label="Layer 1"
     inkscape:groupmode="layer"
     id="layer1"
     transform="translate(-53.813278,-309.63392)">
    <g
       id="g4142"
       transform="matrix(16.522579,0,0,16.522579,-38.623135,-16303.948)"
       style="fill:#ffffff;fill-opacity:1">
      <path
         style="fill:#ffffff;fill-opacity:1;stroke:none"
         d="m 35.326429,1034.6922 c 1.929959,0.5853 1.98217,1.4444 2.244207,2.2728 -0.935009,-0.3579 -1.918919,-0.6113 -2.244207,-2.2728 z"
         id="path3995"
         sodipodi:nodetypes="ccc"
         inkscape:connector-curvature="0" />
      <path
         sodipodi:nodetypes="ccc"
         id="path4009"
         d="m 38.997607,1024.2759 c 3.130799,-1.797 4.187256,-0.773 5.475466,-0.064 -1.602296,0.7762 -3.146517,1.7499 -5.475466,0.064 z"
         style="fill:#ffffff;fill-opacity:1;stroke:none"
         inkscape:connector-curvature="0" />
      <path
         style="fill:#ffffff;fill-opacity:1;stroke:none"
         d="m 38.798495,1022.7074 c 2.952882,-2.4056 4.200613,-1.5352 5.638847,-1.0309 -1.53335,1.0831 -2.976368,2.3595 -5.638847,1.0309 z"
         id="path4011"
         sodipodi:nodetypes="ccc"
         inkscape:connector-curvature="0" />
      <path
         sodipodi:nodetypes="ccc"
         id="path3997"
         d="m 35.665143,1033.0749 c 2.574345,0.8831 2.60776,2.0428 2.925113,3.1714 -1.244004,-0.5279 -2.558358,-0.9175 -2.925113,-3.1714 z"
         style="fill:#ffffff;fill-opacity:1;stroke:none"
         inkscape:connector-curvature="0" />
      <path
         style="fill:#ffffff;fill-opacity:1;stroke:none"
         d="m 35.953269,1031.1803 c 3.252243,0.9211 3.363274,2.36 3.825314,3.7408 -1.577645,-0.5708 -3.234441,-0.9651 -3.825314,-3.7408 z"
         id="path3999"
         sodipodi:nodetypes="ccc"
         inkscape:connector-curvature="0" />
      <path
         sodipodi:nodetypes="ccc"
         id="path4001"
         d="m 36.435307,1029.4918 c 3.520052,0.7015 3.744764,2.2192 4.33769,3.6454 -1.716767,-0.4718 -3.504424,-0.7497 -4.33769,-3.6454 z"
         style="fill:#ffffff;fill-opacity:1;stroke:none"
         inkscape:connector-curvature="0" />
      <path
         style="fill:#ffffff;fill-opacity:1;stroke:none"
         d="m 37.556724,1028.1441 c 3.290752,0.5844 3.526089,1.9936 4.10283,3.3104 -1.60716,-0.4058 -3.277022,-0.6296 -4.10283,-3.3104 z"
         id="path4003"
         sodipodi:nodetypes="ccc"
         inkscape:connector-curvature="0" />
      <path
         sodipodi:nodetypes="ccc"
         id="path4005"
         d="m 38.230685,1026.6956 c 3.526177,0.078 3.972479,1.514 4.762882,2.7982 -1.739241,-0.1639 -3.518232,-0.1271 -4.762882,-2.7982 z"
         style="fill:#ffffff;fill-opacity:1;stroke:none"
         inkscape:connector-curvature="0" />
      <path
         style="fill:#ffffff;fill-opacity:1;stroke:none"
         d="m 38.780181,1025.6077 c 3.487338,-0.9643 4.297144,0.3158 5.406102,1.3452 -1.752481,0.3523 -3.492191,0.9138 -5.406102,-1.3452 z"
         id="path4007"
         sodipodi:nodetypes="ccc"
         inkscape:connector-curvature="0" />
      <path
         sodipodi:nodetypes="ccc"
         id="path4013"
         d="m 38.460267,1021.091 c 2.672386,-2.8879 4.05305,-2.1958 5.578029,-1.9036 -1.409819,1.3313 -2.702312,2.8448 -5.578029,1.9036 z"
         style="fill:#ffffff;fill-opacity:1;stroke:none"
         inkscape:connector-curvature="0" />
      <path
         style="fill:#ffffff;fill-opacity:1;stroke:none"
         d="m 37.871345,1019.6058 c 2.334712,-3.7078 3.959992,-3.2623 5.664539,-3.2808 -1.268555,1.7483 -2.375329,3.6678 -5.664539,3.2808 z"
         id="path4015"
         sodipodi:nodetypes="ccc"
         inkscape:connector-curvature="0" />
      <path
         sodipodi:nodetypes="ccc"
         id="path4017"
         d="m 37.061714,1018.4421 c 1.090196,-4.4138 2.797896,-4.5662 4.436613,-5.1948 -0.675833,2.1413 -1.141922,4.3896 -4.436613,5.1948 z"
         style="fill:#ffffff;fill-opacity:1;stroke:none"
         inkscape:connector-curvature="0" />
      <path
         style="fill:#ffffff;fill-opacity:1;stroke:none"
         d="m 36.124134,1017.9634 c -0.809181,-4.7586 0.765253,-5.7252 2.073408,-7.1154 0.251557,2.3791 0.749397,4.7603 -2.073408,7.1154 z"
         id="path4019"
         sodipodi:nodetypes="ccc"
         inkscape:connector-curvature="0" />
    </g>
    <circle
       style="fill:#ffffff;fill-opacity:1;stroke:none"
       id="path2993"
       transform="matrix(17.314758,0,0,17.314758,-53.231065,238.51973)"
       cx="24.732143"
       cy="10.625"
       r="6.5178571" />
    <circle
       style="fill:#ffffff;fill-opacity:1;stroke:none"
       id="path3767"
       transform="matrix(18.608871,0,0,18.608871,-103.5138,161.16911)"
       cx="25.714285"
       cy="45"
       r="2.5" />
    <path
       style="fill:#ffffff;fill-opacity:1;stroke:none"
       d="m 335.91412,1025.5563 c -8.20009,15.8484 -165.81815,-118.64867 -104.74136,-187.35451 -5.35355,-5.40949 -8.40285,-9.34352 5.90093,-14.75301 30.39389,0.57829 39.95921,28.63859 45.73213,47.20831 -11.09921,6.35624 -14.95402,7.87962 -22.12842,4.42475 1.74057,77.16375 31.44902,96.64387 64.17249,109.90489 -10.43244,0 -23.07064,-2.90467 -18.44036,14.01446 z"
       id="path3769"
       sodipodi:nodetypes="cccccccc"
       inkscape:connector-curvature="0" />
    <path
       sodipodi:nodetypes="cccccccc"
       id="path3836"
       d="m 414.08588,1025.5563 c 8.20011,15.8484 165.81816,-118.65032 104.74134,-187.35451 5.35358,-5.40949 8.40289,-9.34352 -5.90093,-14.75301 -30.39389,0.57829 -39.95921,28.63859 -45.73213,47.20831 11.09921,6.35624 14.95406,7.87962 22.12844,4.42475 -1.74057,77.16375 -31.44903,96.64387 -64.17251,109.90489 10.43246,0 23.07064,-2.90467 18.44037,14.01446 l -29.5046,26.55511 z"
       style="fill:#ffffff;fill-opacity:1;stroke:none"
       inkscape:connector-curvature="0" />
    <path
       style="fill:#ffffff;fill-opacity:1;stroke:none"
       d="m 222.97034,823.81888 c -14.42816,-29.18218 -22.51087,-60.6296 -9.58899,-99.57828 18.16092,4.62633 36.14526,10.3134 52.37068,26.55344 4.21106,12.61003 3.64841,24.02383 0,34.66768 -11.49683,-13.1338 -20.45872,-14.86041 -28.02939,-10.32662 2.56128,28.19413 2.1311,51.60167 -14.7523,48.68378 z"
       id="path3859"
       sodipodi:nodetypes="cccccc"
       inkscape:connector-curvature="0" />
    <path
       sodipodi:nodetypes="cccccc"
       id="path3874"
       d="m 527.02965,823.81888 c 14.42817,-29.18218 22.51088,-60.6296 9.589,-99.57828 -18.16093,4.62633 -36.14526,10.3134 -52.37068,26.55344 -4.21106,12.60838 -3.64842,24.02383 0,34.66768 11.49682,-13.1338 20.45872,-14.86041 28.02938,-10.32662 -2.56128,28.19413 -2.13109,51.60167 14.7523,48.68378 z"
       style="fill:#ffffff;fill-opacity:1;stroke:none"
       inkscape:connector-curvature="0" />
    <path
       style="fill:#ffffff;fill-opacity:1;stroke:none"
       d="M 227.1184,693.62922 C 201.99494,705.92698 188.5093,538.8143 307.51846,528.40343 196.6026,581.80275 268.11611,706.38135 227.1184,693.62922 Z"
       id="path3876"
       sodipodi:nodetypes="ccc"
       inkscape:connector-curvature="0" />
    <path
       sodipodi:nodetypes="ccc"
       id="path3878"
       d="m 522.88161,693.62922 c 25.12344,12.29941 38.6091,-154.81492 -80.40008,-165.22579 110.91586,53.39932 39.40236,177.97792 80.40008,165.22579 z"
       style="fill:#ffffff;fill-opacity:1;stroke:none"
       inkscape:connector-curvature="0" />
    <path
       style="fill:#ffffff;fill-opacity:1;stroke:none"
       d="m 456.45403,872.79346 c -23.56316,68.70254 -135.18619,64.26953 -162.90807,1.61922 46.39347,40.03586 115.58994,44.66714 162.90807,-1.61922 z"
       id="path3880"
       sodipodi:nodetypes="ccc"
       inkscape:connector-curvature="0" />
    <path
       style="fill:#ffffff;fill-opacity:1;stroke:none"
       d="M 376.60537,901.63528 375.8678,762.22601 c 3.43253,-9.86893 30.8666,-21.85772 101.05328,-37.61861 8.34538,86.22309 2.92971,174.59906 -100.31567,177.02788 z"
       id="path3882"
       sodipodi:nodetypes="cccc"
       inkscape:connector-curvature="0" />
    <path
       sodipodi:nodetypes="cccc"
       id="path3884"
       d="m 373.39462,901.63528 0.73756,-139.40927 c -3.43253,-9.86893 -30.86662,-21.85772 -101.05328,-37.61695 -8.34539,86.22143 -2.9297,174.5974 100.31565,177.02622 z"
       style="fill:#ffffff;fill-opacity:1;stroke:none"
       inkscape:connector-curvature="0" />
    <path
       style="fill:#ffffff;fill-opacity:1;stroke:none"
       d="m 269.38053,720.18266 c 40.28668,9.20473 73.36952,19.85188 106.95421,34.66767 27.58719,-15.43704 58.10813,-23.77764 100.31565,-34.29922 22.92393,-5.95804 62.16607,-82.10565 -25.07891,-98.83972 -55.45227,24.49142 -92.10611,24.93092 -153.05515,0 -71.94889,9.77806 -53.94177,87.64237 -29.1358,98.47127 z"
       id="path3886"
       sodipodi:nodetypes="cccccc"
       inkscape:connector-curvature="0" />
    <path
       style="fill:#ffffff;fill-opacity:1;stroke:none"
       d="m 354.12507,628.35016 c -14.58208,0.92527 -28.41024,0 -39.09359,-8.85114 -6.82051,-18.5466 0.66701,-36.12332 17.70277,-42.04501 23.26029,14.27716 20.8433,32.83367 21.39082,50.89615 z"
       id="path3888"
       sodipodi:nodetypes="cccc"
       inkscape:connector-curvature="0" />
    <path
       sodipodi:nodetypes="cccc"
       id="path3890"
       d="m 395.87492,628.34851 c 14.58209,0.92526 28.41025,0 39.0936,-8.85115 6.8205,-18.54659 -0.66702,-36.12166 -17.70277,-42.04335 -23.26029,14.27716 -20.8433,32.83367 -21.39083,50.8945 z"
       style="fill:#ffffff;fill-opacity:1;stroke:none"
       inkscape:connector-curvature="0" />
    <path
       style="fill:#ffffff;fill-opacity:1;stroke:none"
       d="m 357.66604,633.14336 c 11.31009,5.25418 23.35781,6.02248 34.66791,1.47051 -3.15059,-7.86805 -1.08636,-14.99754 -14.7523,-22.8656 -16.60476,2.82371 -16.5278,12.90249 -19.91561,21.39013 z"
       id="path3892"
       sodipodi:nodetypes="cccc"
       inkscape:connector-curvature="0" />
    <path
       style="fill:#ffffff;fill-opacity:1;stroke:none"
       d="m 355.98428,590.3631 c -0.0826,-39.19817 42.65882,-30.79148 37.61837,2.21237 -3.83603,23.31336 -38.15263,19.83866 -37.61837,-2.21237 z"
       id="path3894"
       sodipodi:nodetypes="ccc"
       inkscape:connector-curvature="0" />
    <g
       id="g4157"
       transform="matrix(-16.522579,0,0,16.522579,788.62314,-16303.948)"
       style="fill:#ffffff;fill-opacity:1">
      <path
         sodipodi:nodetypes="ccc"
         id="path4159"
         d="m 35.326429,1034.6922 c 1.929959,0.5853 1.98217,1.4444 2.244207,2.2728 -0.935009,-0.3579 -1.918919,-0.6113 -2.244207,-2.2728 z"
         style="fill:#ffffff;fill-opacity:1;stroke:none"
         inkscape:connector-curvature="0" />
      <path
         style="fill:#ffffff;fill-opacity:1;stroke:none"
         d="m 38.997607,1024.2759 c 3.130799,-1.797 4.187256,-0.773 5.475466,-0.064 -1.602296,0.7762 -3.146517,1.7499 -5.475466,0.064 z"
         id="path4161"
         sodipodi:nodetypes="ccc"
         inkscape:connector-curvature="0" />
      <path
         sodipodi:nodetypes="ccc"
         id="path4163"
         d="m 38.798495,1022.7074 c 2.952882,-2.4056 4.200613,-1.5352 5.638847,-1.0309 -1.53335,1.0831 -2.976368,2.3595 -5.638847,1.0309 z"
         style="fill:#ffffff;fill-opacity:1;stroke:none"
         inkscape:connector-curvature="0" />
      <path
         style="fill:#ffffff;fill-opacity:1;stroke:none"
         d="m 35.665143,1033.0749 c 2.574345,0.8831 2.60776,2.0428 2.925113,3.1714 -1.244004,-0.5279 -2.558358,-0.9175 -2.925113,-3.1714 z"
         id="path4165"
         sodipodi:nodetypes="ccc"
         inkscape:connector-curvature="0" />
      <path
         sodipodi:nodetypes="ccc"
         id="path4167"
         d="m 35.953269,1031.1803 c 3.252243,0.9211 3.363274,2.36 3.825314,3.7408 -1.577645,-0.5708 -3.234441,-0.9651 -3.825314,-3.7408 z"
         style="fill:#ffffff;fill-opacity:1;stroke:none"
         inkscape:connector-curvature="0" />
      <path
         style="fill:#ffffff;fill-opacity:1;stroke:none"
         d="m 36.435307,1029.4918 c 3.520052,0.7015 3.744764,2.2192 4.33769,3.6454 -1.716767,-0.4718 -3.504424,-0.7497 -4.33769,-3.6454 z"
         id="path4169"
         sodipodi:nodetypes="ccc"
         inkscape:connector-curvature="0" />
      <path
         sodipodi:nodetypes="ccc"
         id="path4171"
         d="m 37.556724,1028.1441 c 3.290752,0.5844 3.526089,1.9936 4.10283,3.3104 -1.60716,-0.4058 -3.277022,-0.6296 -4.10283,-3.3104 z"
         style="fill:#ffffff;fill-opacity:1;stroke:none"
         inkscape:connector-curvature="0" />
      <path
         style="fill:#ffffff;fill-opacity:1;stroke:none"
         d="m 38.230685,1026.6956 c 3.526177,0.078 3.972479,1.514 4.762882,2.7982 -1.739241,-0.1639 -3.518232,-0.1271 -4.762882,-2.7982 z"
         id="path4173"
         sodipodi:nodetypes="ccc"
         inkscape:connector-curvature="0" />
      <path
         sodipodi:nodetypes="ccc"
         id="path4175"
         d="m 38.780181,1025.6077 c 3.487338,-0.9643 4.297144,0.3158 5.406102,1.3452 -1.752481,0.3523 -3.492191,0.9138 -5.406102,-1.3452 z"
         style="fill:#ffffff;fill-opacity:1;stroke:none"
         inkscape:connector-curvature="0" />
      <path
         style="fill:#ffffff;fill-opacity:1;stroke:none"
         d="m 38.460267,1021.091 c 2.672386,-2.8879 4.05305,-2.1958 5.578029,-1.9036 -1.409819,1.3313 -2.702312,2.8448 -5.578029,1.9036 z"
         id="path4177"
         sodipodi:nodetypes="ccc"
         inkscape:connector-curvature="0" />
      <path
         sodipodi:nodetypes="ccc"
         id="path4179"
         d="m 37.871345,1019.6058 c 2.334712,-3.7078 3.959992,-3.2623 5.664539,-3.2808 -1.268555,1.7483 -2.375329,3.6678 -5.664539,3.2808 z"
         style="fill:#ffffff;fill-opacity:1;stroke:none"
         inkscape:connector-curvature="0" />
      <path
         style="fill:#ffffff;fill-opacity:1;stroke:none"
         d="m 37.061714,1018.4421 c 1.090196,-4.4138 2.797896,-4.5662 4.436613,-5.1948 -0.675833,2.1413 -1.141922,4.3896 -4.436613,5.1948 z"
         id="path4181"
         sodipodi:nodetypes="ccc"
         inkscape:connector-curvature="0" />
      <path
         sodipodi:nodetypes="ccc"
         id="path4183"
         d="m 36.124134,1017.9634 c -0.809181,-4.7586 0.765253,-5.7252 2.073408,-7.1154 0.251557,2.3791 0.749397,4.7603 -2.073408,7.1154 z"
         style="fill:#ffffff;fill-opacity:1;stroke:none"
         inkscape:connector-curvature="0" />
    </g>
    <path
       style="fill:#ffffff;fill-opacity:1;stroke:none"
       d="m 260.79661,875.20245 c -10.53501,-12.56872 -20.78427,-25.02179 -29.5992,-36.90152 11.29122,10.26547 20.72537,23.18283 29.5992,36.90152 z"
       id="path4185"
       sodipodi:nodetypes="ccc"
       inkscape:connector-curvature="0" />
    <path
       sodipodi:nodetypes="ccc"
       id="path4187"
       d="m 488.85432,875.20245 c 10.53501,-12.56872 20.78426,-25.02179 29.5992,-36.90152 -11.29123,10.26382 -20.72537,23.18283 -29.5992,36.90152 z"
       style="fill:#ffffff;fill-opacity:1;stroke:none"
       inkscape:connector-curvature="0" />
  </g>
</svg>
