<?xml version="1.0" encoding="UTF-8" standalone="no"?>
<!-- Uploaded to: SVG Repo, www.svgrepo.com, Generator: SVG Repo Mixer Tools -->

<svg
   fill="#ffffff"
   width="749.79999"
   height="749.79999"
   viewBox="0 0 29.992 29.992"
   version="1.1"
   id="svg6"
   sodipodi:docname="ubuntu.svg"
   inkscape:version="1.1.2 (b8e25be833, 2022-02-05)"
   xmlns:inkscape="http://www.inkscape.org/namespaces/inkscape"
   xmlns:sodipodi="http://sodipodi.sourceforge.net/DTD/sodipodi-0.dtd"
   xmlns="http://www.w3.org/2000/svg"
   xmlns:svg="http://www.w3.org/2000/svg"
   xmlns:rdf="http://www.w3.org/1999/02/22-rdf-syntax-ns#"
   xmlns:cc="http://creativecommons.org/ns#"
   xmlns:dc="http://purl.org/dc/elements/1.1/">
  <defs
     id="defs10" />
  <sodipodi:namedview
     id="namedview8"
     pagecolor="#ffffff"
     bordercolor="#999999"
     borderopacity="1"
     inkscape:pageshadow="0"
     inkscape:pageopacity="0"
     inkscape:pagecheckerboard="0"
     showgrid="false"
     inkscape:zoom="0.63551222"
     inkscape:cx="406.7585"
     inkscape:cy="360.33926"
     inkscape:window-width="1920"
     inkscape:window-height="1009"
     inkscape:window-x="-8"
     inkscape:window-y="-8"
     inkscape:window-maximized="1"
     inkscape:current-layer="svg6" />
  <title
     id="title2">ubuntu</title>
  <path
     d="m 19.094,7.897 c 0.287,0.168 0.632,0.268 1,0.268 1.106,0 2.002,-0.896 2.002,-2.002 0,-1.106 -0.896,-2.002 -2.002,-2.002 -0.738,0 -1.383,0.4 -1.73,0.994 l -0.005,0.01 c -0.167,0.286 -0.266,0.63 -0.266,0.997 0,0.737 0.398,1.381 0.991,1.729 l 0.009,0.005 z m -4.098,1.251 c 3.047,0 5.549,2.331 5.822,5.307 l 0.002,0.023 2.855,-0.043 C 23.528,12.214 22.567,10.242 21.09,8.793 L 21.089,8.792 c -0.296,0.116 -0.639,0.183 -0.997,0.183 -1.393,0 -2.55,-1.016 -2.768,-2.348 L 17.322,6.611 C 16.625,6.414 15.825,6.3 14.998,6.299 h -10e-4 c -0.003,0 -0.008,0 -0.012,0 -1.4,0 -2.722,0.332 -3.892,0.922 l 0.05,-0.023 1.391,2.493 c 0.72,-0.343 1.566,-0.544 2.458,-0.544 0.002,0 0.004,0 0.006,0 v 0 z M 4.799,12.994 c 0,0 -0.001,0 -0.001,0 -1.106,0 -2.002,0.896 -2.002,2.002 0,1.106 0.896,2.002 2.002,2.002 1.106,0 2.002,-0.896 2.002,-2.002 v 0 c 0,0 0,0 0,0 0,-1.105 -0.896,-2.001 -2.001,-2.002 z m 4.349,2.002 c 0,0 0,-0.001 0,-0.001 0,-1.971 0.975,-3.714 2.469,-4.773 L 11.635,10.21 10.173,7.759 C 8.423,8.935 7.139,10.688 6.587,12.74 l -0.014,0.061 c 0.635,0.513 1.037,1.291 1.037,2.163 0,0.004 0,0.008 0,0.011 V 14.974 C 7.608,15.849 7.206,16.63 6.578,17.143 l -0.005,0.004 c 0.567,2.113 1.851,3.865 3.569,5.021 l 0.031,0.02 1.462,-2.456 c -1.51,-1.047 -2.487,-2.771 -2.487,-4.724 0,-0.005 0,-0.011 0,-0.016 v 10e-4 z m 5.848,5.848 c -0.001,0 -0.003,0 -0.005,0 -0.892,0 -1.738,-0.2 -2.493,-0.559 l 0.035,0.015 -1.391,2.493 c 1.121,0.568 2.445,0.901 3.846,0.901 0.83,0 1.633,-0.117 2.393,-0.335 l -0.061,0.015 c 0.225,-1.346 1.381,-2.36 2.774,-2.36 0.357,0 0.699,0.067 1.013,0.188 l -0.019,-0.007 c 1.48,-1.449 2.441,-3.421 2.585,-5.616 l 0.001,-0.026 -2.855,-0.041 c -0.274,2.999 -2.776,5.331 -5.823,5.331 v 0 z m 4.098,1.25 c -0.602,0.353 -1,0.996 -1,1.732 0,1.105 0.896,2.001 2.001,2.001 1.105,0 2.001,-0.896 2.001,-2.001 0,-0.369 -0.1,-0.715 -0.274,-1.012 l 0.005,0.009 c -0.353,-0.601 -0.996,-0.998 -1.732,-0.998 -0.369,0 -0.714,0.1 -1.011,0.273 l 0.009,-0.005 z M 14.996,0 c 8.282,0 14.996,6.714 14.996,14.996 0,8.282 -6.714,14.996 -14.996,14.996 C 6.714,29.992 0,23.278 0,14.996 v 0 C 0.004,6.716 6.715,0.004 14.995,0 v 0 z"
     id="path4" />
  <metadata
     id="metadata827">
    <rdf:RDF>
      <cc:Work
         rdf:about="">
        <dc:title>ubuntu</dc:title>
      </cc:Work>
    </rdf:RDF>
  </metadata>
</svg>
