<?xml version="1.0" encoding="UTF-8" standalone="no"?>
<!-- Uploaded to: SVG Repo, www.svgrepo.com, Generator: SVG Repo Mixer Tools -->

<svg
   fill="#ffffff"
   width="800.02374"
   height="800.02374"
   viewBox="0 0 1920.057 1920.057"
   version="1.1"
   id="svg4"
   sodipodi:docname="windows.svg"
   inkscape:version="1.1.2 (b8e25be833, 2022-02-05)"
   xmlns:inkscape="http://www.inkscape.org/namespaces/inkscape"
   xmlns:sodipodi="http://sodipodi.sourceforge.net/DTD/sodipodi-0.dtd"
   xmlns="http://www.w3.org/2000/svg"
   xmlns:svg="http://www.w3.org/2000/svg">
  <defs
     id="defs8" />
  <sodipodi:namedview
     id="namedview6"
     pagecolor="#ffffff"
     bordercolor="#999999"
     borderopacity="1"
     inkscape:pageshadow="0"
     inkscape:pageopacity="0"
     inkscape:pagecheckerboard="0"
     showgrid="false"
     inkscape:zoom="0.63551222"
     inkscape:cx="373.71429"
     inkscape:cy="426.42768"
     inkscape:window-width="1920"
     inkscape:window-height="1009"
     inkscape:window-x="-8"
     inkscape:window-y="-8"
     inkscape:window-maximized="1"
     inkscape:current-layer="svg4" />
  <path
     d="m 1863.576,1016.4756 c 31.171,0 56.47,25.299 56.47,56.47 v 790.589 c 0,16.376 -7.115,31.849 -19.313,42.465 -10.39,9.149 -23.605,14.005 -37.158,14.005 -2.484,0 -5.082,-0.113 -7.567,-0.452 l -903.53,-123.331 c -28.008,-3.84 -48.903,-27.784 -48.903,-56.02 v -667.256 c 0,-31.171 25.3,-56.47 56.471,-56.47 z m -1129.412,0 c 31.171,0 56.47,25.299 56.47,56.47 v 634.504 c 0,16.376 -7.115,31.85 -19.426,42.579 -10.39,9.035 -23.491,13.891 -37.044,13.891 -2.485,0 -5.196,-0.113 -7.68,-0.564 l -677.648,-93.967 c -28.01,-3.84 -48.79,-27.67 -48.79,-55.906 v -540.537 c 0,-31.171 25.299,-56.47 56.47,-56.47 z m -7.726,-859.85503 c 16.151,-2.372 32.415,2.597 44.725,13.327 12.424,10.73 19.426,26.315 19.426,42.579 v 634.502 c 0,31.285 -25.186,56.47 -56.47,56.47 H 56.47 c -31.171,0 -56.47,-25.185 -56.47,-56.47 v -540.535 c 0,-28.123 20.781,-52.066 48.79,-55.906 z M 1856.02,0.51256918 c 16.15,-2.03299998 32.414,2.71000002 44.724,13.43999982 12.198,10.73 19.313,26.203 19.313,42.466 V 847.00657 c 0,31.285 -25.299,56.471 -56.47,56.471 H 960.056 c -31.171,0 -56.47,-25.186 -56.47,-56.47 v -667.258 c 0,-28.235 20.78,-52.066 48.903,-55.906 z"
     fill-rule="evenodd"
     id="path2" />
</svg>
